<svg width="210" height="210" xmlns="http://www.w3.org/2000/svg">

 <g>
  <title>background</title>
  <rect fill="none" id="canvas_background" height="212" width="212" y="-1" x="-1"/>
 </g>
 <g>
  <title>Layer 1</title>
  <g stroke="null" id="svg_1">
   <path stroke="null" id="svg_2" d="m104.999996,40.466215c1.881252,0 3.13542,-1.268477 3.13542,-3.171194l0,-5.07391c0,-1.902716 -1.254168,-3.171194 -3.13542,-3.171194c-1.881252,0 -3.13542,1.268477 -3.13542,3.171194l0,5.07391c0,1.585597 1.254168,3.171194 3.13542,3.171194z" fill="#000000"/>
   <path stroke="null" id="svg_3" d="m76.154133,45.857244c0.627084,0.951358 1.56771,1.585597 2.821878,1.585597c0.627084,0 0.940626,0 1.56771,-0.317119c1.56771,-0.951358 1.881252,-2.854074 1.254168,-4.439671l-2.508336,-4.439671c-0.940626,-1.268477 -2.821878,-1.902716 -4.389588,-0.951358c-1.56771,0.951358 -1.881252,2.854074 -1.254168,4.439671l2.508336,4.122552z" fill="#000000"/>
   <path stroke="null" id="svg_4" d="m53.892652,63.933047l4.389588,2.536955c0.627084,0.317119 0.940626,0.317119 1.56771,0.317119c0.940626,0 2.194794,-0.634239 2.821878,-1.585597c0.940626,-1.585597 0.313542,-3.488313 -1.254168,-4.439671l-4.389588,-2.219835c-1.56771,-0.951358 -3.448962,-0.317119 -4.389588,1.268477c-0.627084,1.268477 -0.313542,3.171194 1.254168,4.122552z" fill="#000000"/>
   <path stroke="null" id="svg_5" d="m156.10734,116.257741l-4.389588,-2.536955c-1.56771,-0.951358 -3.448962,-0.317119 -4.389588,1.268477c-0.940626,1.585597 -0.313542,3.488313 1.254168,4.439671l4.389588,2.536955c0.627084,0.317119 0.940626,0.317119 1.56771,0.317119c0.940626,0 2.194794,-0.634239 2.821878,-1.585597c0.627084,-1.585597 0.313542,-3.488313 -1.254168,-4.439671z" fill="#000000"/>
   <path stroke="null" id="svg_6" d="m55.773904,89.936834c0,-1.902716 -1.254168,-3.171194 -3.13542,-3.171194l-4.70313,0c-1.881252,0 -3.13542,1.268477 -3.13542,3.171194s1.254168,3.171194 3.13542,3.171194l5.016672,0c1.56771,0 2.821878,-1.268477 2.821878,-3.171194z" fill="#000000"/>
   <path stroke="null" id="svg_7" d="m162.064638,86.765641l-5.016672,0c-1.881252,0 -3.13542,1.268477 -3.13542,3.171194s1.254168,3.171194 3.13542,3.171194l5.016672,0c1.881252,0 3.13542,-1.268477 3.13542,-3.171194s-1.254168,-3.171194 -3.13542,-3.171194z" fill="#000000"/>
   <path stroke="null" id="svg_8" d="m58.28224,113.720786l-4.389588,2.536955c-1.56771,0.951358 -1.881252,2.854074 -1.254168,4.439671c0.627084,0.951358 1.56771,1.585597 2.821878,1.585597c0.627084,0 0.940626,0 1.56771,-0.317119l4.389588,-2.536955c1.56771,-0.951358 1.881252,-2.854074 1.254168,-4.439671c-0.940626,-1.585597 -2.821878,-2.219835 -4.389588,-1.268477z" fill="#000000"/>
   <path stroke="null" id="svg_9" d="m150.150042,66.787122c0.627084,0 0.940626,0 1.56771,-0.317119l4.389588,-2.536955c1.56771,-0.951358 1.881252,-2.854074 1.254168,-4.439671c-0.940626,-1.585597 -2.821878,-1.902716 -4.389588,-1.268477l-4.389588,2.536955c-1.56771,0.951358 -1.881252,2.854074 -1.254168,4.439671c0.627084,0.951358 1.881252,1.585597 2.821878,1.585597z" fill="#000000"/>
   <path stroke="null" id="svg_10" d="m129.456271,47.125722c0.627084,0.317119 0.940626,0.317119 1.56771,0.317119c0.940626,0 2.194794,-0.634239 2.821878,-1.585597l2.508336,-4.439671c0.940626,-1.585597 0.313542,-3.488313 -1.254168,-4.439671c-1.56771,-0.634239 -3.448962,0 -4.076046,1.268477l-2.508336,4.439671c-0.940626,1.585597 -0.313542,3.488313 0.940626,4.439671z" fill="#000000"/>
   <path stroke="null" id="svg_11" d="m104.999996,45.223006c-24.456275,0 -44.20942,19.978519 -44.20942,44.713829c0,15.538848 8.152092,30.126338 21.007313,38.054322l0,44.713829c0,4.439671 3.762504,8.245103 8.152092,8.245103l30.100031,0c4.389588,0 8.152092,-3.805432 8.152092,-8.245103l0,-44.396709c13.168764,-8.245103 21.007313,-22.515474 21.007313,-38.054322c0,-25.052429 -19.753145,-45.030948 -44.20942,-45.030948zm16.931267,127.799099c0,0.951358 -0.940626,1.902716 -1.881252,1.902716l-30.100031,0c-0.940626,0 -1.881252,-0.951358 -1.881252,-1.902716l0,-15.538848l33.862535,0l0,15.538848zm-21.947939,-21.881235l0,-26.955145c0,-1.902716 -1.254168,-3.171194 -3.13542,-3.171194c-1.881252,0 -3.13542,1.268477 -3.13542,3.171194l0,26.955145l-5.643756,0l0,-41.859754l5.643756,0l0,4.75679c0,1.902716 1.254168,3.171194 3.13542,3.171194c1.881252,0 3.13542,-1.268477 3.13542,-3.171194l0,-4.75679l21.947939,0l0,41.859754l-21.947939,0zm11.287512,-62.789632l8.152092,14.58749l-29.159405,0l8.152092,-14.58749l12.855222,0zm-9.092718,-6.342387l2.821878,-5.07391l2.821878,5.07391l-5.643756,0zm26.023985,38.371442l0,-14.58749c0,0 0,0 0,0c0,0 0,0 0,0c0,-0.634239 0,-0.951358 -0.313542,-1.585597l-20.066687,-35.200248c-0.627084,-0.951358 -1.56771,-1.585597 -2.821878,-1.585597c-1.254168,0 -2.194794,0.634239 -2.821878,1.585597l-20.066687,35.200248c-0.313542,0.634239 -0.313542,0.951358 -0.313542,1.585597c0,0 0,0 0,0c0,0 0,0 0,0l0,14.58749c-9.40626,-7.293745 -14.736473,-18.392922 -14.736473,-30.443458c0,-21.246997 16.931267,-38.371442 37.938581,-38.371442c21.007313,0 37.938581,17.124445 37.938581,38.371442c0,12.050535 -5.643756,23.466832 -14.736473,30.443458z" fill="#000000"/>
  </g>
 </g>
</svg>