<svg width="64" height="80" xmlns="http://www.w3.org/2000/svg">
 <style type="text/css">.st0{fill:#FFFFFF;}
	.st1{fill:#457ABE;}
	.st2{fill:none;stroke:#000000;stroke-linecap:round;stroke-linejoin:round;stroke-miterlimit:10;}
	.st3{fill:none;stroke:#010101;stroke-linecap:round;stroke-linejoin:round;}
	.st4{fill:none;stroke:#457ABE;stroke-linecap:round;stroke-linejoin:round;stroke-miterlimit:10;}
	.st5{fill:#6598D0;}
	.st6{fill:#D0E5F6;}
	.st7{fill:#A8CCEC;}
	.st8{fill:none;stroke:#000000;stroke-miterlimit:10;}
	.st9{fill:none;stroke:#000000;stroke-linecap:round;stroke-linejoin:round;stroke-dasharray:0.5074,2.0294;}
	.st10{fill:none;stroke:#000000;stroke-linecap:round;stroke-linejoin:round;}
	.st11{fill:none;stroke:#000000;stroke-linecap:round;stroke-linejoin:round;stroke-dasharray:1.0247,2.0495;}
	.st12{fill:none;stroke:#000000;stroke-linecap:round;stroke-linejoin:round;stroke-dasharray:1.0232,2.0464;}
	.st13{fill:#FFFFFF;stroke:#000000;stroke-linecap:round;stroke-linejoin:round;stroke-miterlimit:10;}
	.st14{stroke:#000000;stroke-linecap:round;stroke-linejoin:round;stroke-miterlimit:10;}
	.st15{fill:none;stroke:#010101;stroke-linecap:round;stroke-linejoin:round;stroke-miterlimit:10;}
	.st16{fill:none;stroke:#000000;stroke-linecap:round;stroke-linejoin:round;stroke-miterlimit:10;stroke-dasharray:1,2;}
	.st17{fill:none;stroke:#000000;stroke-linecap:round;stroke-linejoin:round;stroke-dasharray:1,2;}
	
		.st18{fill-rule:evenodd;clip-rule:evenodd;fill:none;stroke:#000000;stroke-linecap:round;stroke-linejoin:round;stroke-miterlimit:10;}</style>

 <g>
  <title>background</title>
  <rect fill="none" id="canvas_background" height="402" width="582" y="-1" x="-1"/>
 </g>
 <g>
  <title>Layer 1</title>
  <path id="svg_1" fill="#000000" d="m5,14c-0.276,0 -0.5,0.224 -0.5,0.5l0,37c0,0.276 0.224,0.5 0.5,0.5l27,0c0.276,0 0.5,-0.224 0.5,-0.5l0,-30.77148c0,-0.049 -0.01434,-0.09268 -0.02734,-0.13868c0.029,-0.16 -0.00214,-0.32536 -0.11914,-0.44336l-6,-6c-0.028,-0.028 -0.06757,-0.03468 -0.10157,-0.05468c-0.035,-0.024 -0.07032,-0.04555 -0.11132,-0.06055c-0.031,-0.009 -0.05785,-0.01458 -0.08985,-0.01758c-0.024,-0.003 -0.04726,-0.01367 -0.07226,-0.01367l-20.97852,0zm30,0c-0.276,0 -0.5,0.224 -0.5,0.5l0,12c0,0.276 0.224,0.5 0.5,0.5l24,0c0.276,0 0.5,-0.224 0.5,-0.5l0,-12c0,-0.276 -0.224,-0.5 -0.5,-0.5l-24,0zm-29.5,1l20,0l0,2l-10.5,0c-0.276,0 -0.5,0.224 -0.5,0.5l0,2c0,0.276 0.224,0.5 0.5,0.5l10.5,0l0,0.5c0,0.276 0.224,0.5 0.5,0.5l5.5,0l0,30l-26,0l0,-36zm30,0l23,0l0,11l-23,0l0,-11zm-9,0.70703l4.29297,4.29297l-4.29297,0l0,-0.5l0,-2l0,-1.79297zm25.47852,0.29297c-0.276,0 -0.5,0.224 -0.5,0.5l0,2.86914l0,2.13086c0,0.276 0.224,0.5 0.5,0.5l0.13086,0l4.86914,0c0.276,0 0.5,-0.224 0.5,-0.5l0,-2.20117l0,-2.79883c0,-0.276 -0.224,-0.5 -0.5,-0.5l-5,0zm-43.97852,1c-0.276,0 -0.5,0.224 -0.5,0.5l0,2.86914l0,2.13086c0,0.276 0.224,0.5 0.5,0.5l0.13086,0l4.86914,0c0.276,0 0.5,-0.224 0.5,-0.5l0,-2.20117l0,-2.79883c0,-0.276 -0.224,-0.5 -0.5,-0.5l-5,0zm44.48047,0l3.99805,0l0,1.0918l-0.53907,-0.53907c-0.195,-0.195 -0.51203,-0.195 -0.70703,0l-0.71679,0.7168l-0.71875,-0.7168c-0.18801,-0.188 -0.52004,-0.188 -0.70704,0l-0.60937,0.60938l0,-1.16211zm-43.98047,1l4,0l0,1.0918l-0.53906,-0.53907c-0.195,-0.195 -0.51203,-0.195 -0.70703,0l-0.71875,0.7168l-0.7168,-0.7168c-0.195,-0.195 -0.51203,-0.195 -0.70703,0l-0.61133,0.60938l0,-1.16211zm7,0l10,0l0,1l-10,0l0,-1zm37.94336,0.61328l0.36328,0.36328l-1.32812,1.32813l0,-0.72852l0.96484,-0.96289zm2.14453,0l0.89258,0.89258l0,1.49414l-0.00195,0l-3.2793,0l2.38867,-2.38672zm-46.12305,1l0.36329,0.36328l-1.32813,1.33008l0,-0.73047l0.96484,-0.96289zm2.14258,0l0.89453,0.89258l0,1.49414l-0.00195,0l-3.2793,0l2.38672,-2.38672zm3.39258,1.38672c-0.276,0 -0.5,0.224 -0.5,0.5c0,0.276 0.224,0.5 0.5,0.5l8,0c0.276,0 0.5,-0.224 0.5,-0.5c0,-0.276 -0.224,-0.5 -0.5,-0.5l-8,0zm22,3c-0.276,0 -0.5,0.224 -0.5,0.5c0,0.276 0.224,0.5 0.5,0.5l20,0c0.276,0 0.5,-0.224 0.5,-0.5c0,-0.276 -0.224,-0.5 -0.5,-0.5l-20,0zm-2,5c-0.276,0 -0.5,0.224 -0.5,0.5l0,22c0,0.276 0.224,0.5 0.5,0.5l15,0c1.379,0 2.5,-1.122 2.5,-2.5l0,-18c0,-1.378 -1.121,-2.5 -2.5,-2.5l-15,0zm21.97852,0.0293c-0.19438,0 -0.3874,0.09515 -0.46289,0.28515l-1.19532,2.98828l-0.0039,0.00586l-0.79688,1.99414c-0.001,0.002 -0.00095,0.00191 -0.00195,0.00391l-0.00391,0.00586c-0.003,0.006 0.00105,0.01253 -0.00195,0.01953c-0.019,0.052 -0.0332,0.10702 -0.0332,0.16602l0,15l0,3c0,1.378 1.121,2.5 2.5,2.5c1.379,0 2.5,-1.122 2.5,-2.5l0,-3l0,-15c0,-0.059 -0.01521,-0.11302 -0.03321,-0.16602c-0.002,-0.006 -0.0009,-0.01253 -0.0039,-0.01953l0,-0.00391c-0.001,-0.002 -0.00096,-0.00386 -0.00196,-0.00586l-1.99609,-4.98828c-0.075,-0.19 -0.27047,-0.28515 -0.46484,-0.28515zm-21.47852,0.9707l13,0l0,21l-13,0l0,-21zm14,0l0.5,0c0.827,0 1.5,0.673 1.5,1.5l0,18c0,0.827 -0.673,1.5 -1.5,1.5l-0.5,0l0,-21zm7.47852,0.8457l0.46289,1.1543l-0.92383,0l0.46094,-1.1543zm-15.97852,0.1543c-0.276,0 -0.5,0.224 -0.5,0.5l0,2.86914l0,2.13086c0,0.276 0.224,0.5 0.5,0.5l0.13086,0l4.86914,0c0.276,0 0.5,-0.224 0.5,-0.5l0,-2.20117l0,-2.79883c0,-0.276 -0.224,-0.5 -0.5,-0.5l-5,0zm0.5,1l4,0l0,1.0918l-0.53906,-0.53907c-0.195,-0.195 -0.51203,-0.195 -0.70703,0l-0.71875,0.7168l-0.7168,-0.7168c-0.195,-0.195 -0.51203,-0.195 -0.70703,0l-0.61133,0.60938l0,-1.16211zm14.61719,1l1.72461,0l0.39843,1l-1.26171,0l-1.26172,0l0.40039,-1zm-13.65235,0.61328l0.36329,0.36328l-1.32813,1.33008l0,-0.73047l0.96484,-0.96289zm2.14258,0l0.89453,0.89258l0,1.49414l-0.00195,0l-3.2793,0l2.38672,-2.38672zm10.8711,1.38672l1,0l0,14l-1,0l0,-14zm2,0l1,0l0,14l-1,0l0,-14zm-16.5,3c-0.276,0 -0.5,0.224 -0.5,0.5c0,0.276 0.224,0.5 0.5,0.5l5,0c0.276,0 0.5,-0.224 0.5,-0.5c0,-0.276 -0.223,-0.5 -0.5,-0.5l-5,0zm-32.97852,8c-0.276,0 -0.5,0.224 -0.5,0.5c0,0.276 0.224,0.5 0.5,0.5l21,0c0.276,0 0.5,-0.224 0.5,-0.5c0,-0.276 -0.224,-0.5 -0.5,-0.5l-21,0zm0,2c-0.276,0 -0.5,0.224 -0.5,0.5c0,0.276 0.224,0.5 0.5,0.5l1,0c0.276,0 0.5,-0.224 0.5,-0.5c0,-0.276 -0.224,-0.5 -0.5,-0.5l-1,0zm20,0c-0.276,0 -0.5,0.224 -0.5,0.5c0,0.276 0.224,0.5 0.5,0.5l1,0c0.276,0 0.5,-0.224 0.5,-0.5c0,-0.276 -0.224,-0.5 -0.5,-0.5l-1,0zm27.47852,2l1.5,0l1.5,0l0,1l-3,0l0,-1zm0,2l3,0l0,0.5c0,0.827 -0.672,1.5 -1.5,1.5c-0.827,0 -1.5,-0.673 -1.5,-1.5l0,-0.5zm-49.47852,2c-0.827,0 -1.5,0.673 -1.5,1.5l0,9c0,0.827 0.673,1.5 1.5,1.5l15,0c0.827,0 1.5,-0.673 1.5,-1.5l0,-9c0,-0.827 -0.673,-1.5 -1.5,-1.5l-15,0zm20,0c-0.827,0 -1.5,0.673 -1.5,1.5l0,9c0,0.827 0.673,1.5 1.5,1.5l15,0c0.827,0 1.5,-0.673 1.5,-1.5l0,-9c0,-0.827 -0.673,-1.5 -1.5,-1.5l-15,0zm-20,1l15,0c0.275,0 0.5,0.224 0.5,0.5l0,9c0,0.276 -0.225,0.5 -0.5,0.5l-15,0c-0.275,0 -0.5,-0.224 -0.5,-0.5l0,-9c0,-0.276 0.225,-0.5 0.5,-0.5zm20,0l15,0c0.275,0 0.5,0.224 0.5,0.5l0,9c0,0.276 -0.225,0.5 -0.5,0.5l-15,0c-0.275,0 -0.5,-0.224 -0.5,-0.5l0,-9c0,-0.276 0.225,-0.5 0.5,-0.5zm-15,2c-0.276,0 -0.5,0.224 -0.5,0.5l0,2.86914l0,2.13086c0,0.276 0.224,0.5 0.5,0.5l0.13086,0l4.86914,0c0.276,0 0.5,-0.224 0.5,-0.5l0,-2.20117l0,-2.79883c0,-0.276 -0.224,-0.5 -0.5,-0.5l-5,0zm0.5,1l4,0l0,1.0918l-0.53906,-0.53907c-0.195,-0.195 -0.51203,-0.195 -0.70703,0l-0.71875,0.7168l-0.7168,-0.7168c-0.195,-0.195 -0.51203,-0.195 -0.70703,0l-0.61133,0.60938l0,-1.16211zm16.5,0c-0.276,0 -0.5,0.224 -0.5,0.5c0,0.276 0.224,0.5 0.5,0.5l11,0c0.276,0 0.5,-0.224 0.5,-0.5c0,-0.276 -0.224,-0.5 -0.5,-0.5l-11,0zm-15.53516,1.61328l0.36329,0.36328l-1.32813,1.33008l0,-0.73047l0.96484,-0.96289zm2.14258,0l0.89453,0.89258l0,1.49414l-0.00195,0l-3.2793,0l2.38672,-2.38672zm13.39258,0.38672a0.5,0.5 0 0 0 -0.5,0.5a0.5,0.5 0 0 0 0.5,0.5a0.5,0.5 0 0 0 0.5,-0.5a0.5,0.5 0 0 0 -0.5,-0.5zm2,0c-0.276,0 -0.5,0.224 -0.5,0.5c0,0.276 0.224,0.5 0.5,0.5l3,0c0.276,0 0.5,-0.224 0.5,-0.5c0,-0.276 -0.224,-0.5 -0.5,-0.5l-3,0zm-2,2a0.5,0.5 0 0 0 -0.5,0.5a0.5,0.5 0 0 0 0.5,0.5a0.5,0.5 0 0 0 0.5,-0.5a0.5,0.5 0 0 0 -0.5,-0.5zm2,0c-0.276,0 -0.5,0.224 -0.5,0.5c0,0.276 0.224,0.5 0.5,0.5l3,0c0.276,0 0.5,-0.224 0.5,-0.5c0,-0.276 -0.224,-0.5 -0.5,-0.5l-3,0z"/>
  <text id="svg_3" font-family="'Helvetica Neue', Helvetica, Arial-Unicode, Arial, Sans-serif" font-weight="bold" font-size="5px" fill="#000000" y="84" x="0">from the Noun Project</text>
 </g>
</svg>