<svg width="220" height="220" xmlns="http://www.w3.org/2000/svg">
 <style type="text/css">.st0{fill:#FFFFFF;}
	.st1{fill:#457ABE;}
	.st2{fill:none;stroke:#000000;stroke-linecap:round;stroke-linejoin:round;stroke-miterlimit:10;}
	.st3{fill:none;stroke:#010101;stroke-linecap:round;stroke-linejoin:round;}
	.st4{fill:none;stroke:#457ABE;stroke-linecap:round;stroke-linejoin:round;stroke-miterlimit:10;}
	.st5{fill:#6598D0;}
	.st6{fill:#D0E5F6;}
	.st7{fill:#A8CCEC;}
	.st8{fill:none;stroke:#000000;stroke-miterlimit:10;}
	.st9{fill:none;stroke:#000000;stroke-linecap:round;stroke-linejoin:round;stroke-dasharray:0.5074,2.0294;}
	.st10{fill:none;stroke:#000000;stroke-linecap:round;stroke-linejoin:round;}
	.st11{fill:none;stroke:#000000;stroke-linecap:round;stroke-linejoin:round;stroke-dasharray:1.0247,2.0495;}
	.st12{fill:none;stroke:#000000;stroke-linecap:round;stroke-linejoin:round;stroke-dasharray:1.0232,2.0464;}
	.st13{fill:#FFFFFF;stroke:#000000;stroke-linecap:round;stroke-linejoin:round;stroke-miterlimit:10;}
	.st14{stroke:#000000;stroke-linecap:round;stroke-linejoin:round;stroke-miterlimit:10;}
	.st15{fill:none;stroke:#010101;stroke-linecap:round;stroke-linejoin:round;stroke-miterlimit:10;}
	.st16{fill:none;stroke:#000000;stroke-linecap:round;stroke-linejoin:round;stroke-miterlimit:10;stroke-dasharray:1,2;}
	.st17{fill:none;stroke:#000000;stroke-linecap:round;stroke-linejoin:round;stroke-dasharray:1,2;}
	
		.st18{fill-rule:evenodd;clip-rule:evenodd;fill:none;stroke:#000000;stroke-linecap:round;stroke-linejoin:round;stroke-miterlimit:10;}</style>

 <g>
  <title>background</title>
  <rect fill="none" id="canvas_background" height="222" width="222" y="-1" x="-1"/>
 </g>
 <g>
  <title>Layer 1</title>
  <path stroke="null" id="svg_1" fill="#000000" d="m66.963765,69.500117c-0.439926,0 -0.796967,0.348922 -0.796967,0.778844l0,57.634456c0,0.429922 0.357041,0.778844 0.796967,0.778844l43.036239,0c0.439926,0 0.796967,-0.348922 0.796967,-0.778844l0,-47.932365c0,-0.076327 -0.022857,-0.144367 -0.043578,-0.21602c0.046224,-0.24923 -0.003411,-0.506809 -0.189901,-0.690617l-9.563609,-9.346128c-0.04463,-0.043615 -0.107702,-0.054021 -0.161896,-0.085174c-0.055788,-0.037385 -0.112085,-0.070953 -0.177437,-0.094318c-0.049412,-0.014019 -0.092209,-0.022711 -0.143215,-0.027384c-0.038254,-0.004673 -0.075329,-0.021294 -0.115178,-0.021294l-33.438392,0zm47.818043,0c-0.439926,0 -0.796967,0.348922 -0.796967,0.778844l0,18.692256c0,0.429922 0.357041,0.778844 0.796967,0.778844l38.254434,0c0.439926,0 0.796967,-0.348922 0.796967,-0.778844l0,-18.692256c0,-0.429922 -0.357041,-0.778844 -0.796967,-0.778844l-38.254434,0zm-47.021076,1.557688l31.878695,0l0,3.115376l-16.736315,0c-0.439926,0 -0.796967,0.348922 -0.796967,0.778844l0,3.115376c0,0.429922 0.357041,0.778844 0.796967,0.778844l16.736315,0l0,0.778844c0,0.429922 0.357041,0.778844 0.796967,0.778844l8.766641,0l0,46.73064l-41.442304,0l0,-56.076768zm47.818043,0l36.6605,0l0,17.134568l-36.6605,0l0,-17.134568zm-14.345413,1.101332l6.842714,6.687108l-6.842714,0l0,-0.778844l0,-3.115376l0,-2.792888zm40.611099,0.456356c-0.439926,0 -0.796967,0.348922 -0.796967,0.778844l0,4.469225l0,3.319215c0,0.429922 0.357041,0.778844 0.796967,0.778844l0.208582,0l7.761092,0c0.439926,0 0.796967,-0.348922 0.796967,-0.778844l0,-3.428736l0,-4.359704c0,-0.429922 -0.357041,-0.778844 -0.796967,-0.778844l-7.969674,0zm-70.098892,1.557688c-0.439926,0 -0.796967,0.348922 -0.796967,0.778844l0,4.469225l0,3.319215c0,0.429922 0.357041,0.778844 0.796967,0.778844l0.208582,0l7.761092,0c0.439926,0 0.796967,-0.348922 0.796967,-0.778844l0,-3.428736l0,-4.359704c0,-0.429922 -0.357041,-0.778844 -0.796967,-0.778844l-7.969674,0zm70.898968,0l6.372631,0l0,1.700684l-0.859242,-0.839703c-0.310817,-0.303749 -0.816142,-0.303749 -1.12696,0l-1.142517,1.116551l-1.145641,-1.116551c-0.299676,-0.292845 -0.82891,-0.292845 -1.126976,0l-0.971296,0.949224l0,-1.810205zm-70.102,1.557688l6.375739,0l0,1.700684l-0.859226,-0.839703c-0.310817,-0.303749 -0.816142,-0.303749 -1.12696,0l-1.145641,1.116551l-1.142532,-1.116551c-0.310817,-0.303749 -0.816142,-0.303749 -1.12696,0l-0.97442,0.949224l0,-1.810205zm11.157543,0l15.939348,0l0,1.557688l-15.939348,0l0,-1.557688zm60.479241,0.955299l0.579045,0.565877l-2.116937,2.068812l0,-1.134807l1.537892,-1.499882zm3.418241,0l1.422714,1.390361l0,2.327404l-0.003108,0l-5.22699,0l3.807384,-3.717765zm-73.517133,1.557688l0.579061,0.565877l-2.116953,2.07185l0,-1.137844l1.537892,-1.499882zm3.415133,0l1.425822,1.390361l0,2.327404l-0.003108,0l-5.22699,0l3.804276,-3.717765zm5.407551,2.160077c-0.439926,0 -0.796967,0.348922 -0.796967,0.778844c0,0.429922 0.357041,0.778844 0.796967,0.778844l12.751478,0c0.439926,0 0.796967,-0.348922 0.796967,-0.778844c0,-0.429922 -0.357041,-0.778844 -0.796967,-0.778844l-12.751478,0zm35.066565,4.673064c-0.439926,0 -0.796967,0.348922 -0.796967,0.778844c0,0.429922 0.357041,0.778844 0.796967,0.778844l31.878695,0c0.439926,0 0.796967,-0.348922 0.796967,-0.778844c0,-0.429922 -0.357041,-0.778844 -0.796967,-0.778844l-31.878695,0zm-3.18787,7.78844c-0.439926,0 -0.796967,0.348922 -0.796967,0.778844l0,34.269136c0,0.429922 0.357041,0.778844 0.796967,0.778844l23.909022,0c2.198036,0 3.984837,-1.747726 3.984837,-3.89422l0,-28.038384c0,-2.146494 -1.786801,-3.89422 -3.984837,-3.89422l-23.909022,0zm35.032327,0.04564c-0.309829,0 -0.61749,0.148214 -0.737816,0.444175l-1.905262,4.654808l-0.006216,0.009128l-1.270175,3.106248c-0.001594,0.003115 -0.001514,0.002975 -0.003108,0.006091l-0.006232,0.009128c-0.004782,0.009346 0.001674,0.019518 -0.003108,0.030422c-0.030285,0.081 -0.052919,0.166704 -0.052919,0.258607l0,23.36532l0,4.673064c0,2.146494 1.786801,3.89422 3.984837,3.89422c2.198036,0 3.984837,-1.747726 3.984837,-3.89422l0,-4.673064l0,-23.36532c0,-0.091904 -0.024244,-0.17605 -0.052935,-0.258607c-0.003188,-0.009346 -0.001435,-0.019518 -0.006216,-0.030422l0,-0.006091c-0.001594,-0.003115 -0.00153,-0.006013 -0.003124,-0.009128l-3.181637,-7.770184c-0.119545,-0.295961 -0.431112,-0.444175 -0.740925,-0.444175zm-34.23536,1.512048l20.721152,0l0,32.711448l-20.721152,0l0,-32.711448zm22.315087,0l0.796967,0c1.318184,0 2.390902,1.048324 2.390902,2.336532l0,28.038384c0,1.288208 -1.072718,2.336532 -2.390902,2.336532l-0.796967,0l0,-32.711448zm11.920273,1.317337l0.737816,1.798039l-1.472525,0l0.734708,-1.798039zm-25.468719,0.240351c-0.439926,0 -0.796967,0.348922 -0.796967,0.778844l0,4.469225l0,3.319215c0,0.429922 0.357041,0.778844 0.796967,0.778844l0.208582,0l7.761092,0c0.439926,0 0.796967,-0.348922 0.796967,-0.778844l0,-3.428736l0,-4.359704c0,-0.429922 -0.357041,-0.778844 -0.796967,-0.778844l-7.969674,0zm0.796967,1.557688l6.375739,0l0,1.700684l-0.859226,-0.839703c-0.310817,-0.303749 -0.816142,-0.303749 -1.12696,0l-1.145641,1.116551l-1.142532,-1.116551c-0.310817,-0.303749 -0.816142,-0.303749 -1.12696,0l-0.97442,0.949224l0,-1.810205zm23.298847,1.557688l2.748916,0l0.635071,1.557688l-2.011083,0l-2.011099,0l0.638196,-1.557688zm-21.760955,0.955299l0.579061,0.565877l-2.116953,2.07185l0,-1.137844l1.537892,-1.499882zm3.415133,0l1.425822,1.390361l0,2.327404l-0.003108,0l-5.22699,0l3.804276,-3.717765zm17.327824,2.160077l1.593935,0l0,21.807632l-1.593935,0l0,-21.807632zm3.18787,0l1.593935,0l0,21.807632l-1.593935,0l0,-21.807632zm-26.299924,4.673064c-0.439926,0 -0.796967,0.348922 -0.796967,0.778844c0,0.429922 0.357041,0.778844 0.796967,0.778844l7.969674,0c0.439926,0 0.796967,-0.348922 0.796967,-0.778844c0,-0.429922 -0.355447,-0.778844 -0.796967,-0.778844l-7.969674,0zm-52.56561,12.461504c-0.439926,0 -0.796967,0.348922 -0.796967,0.778844c0,0.429922 0.357041,0.778844 0.796967,0.778844l33.47263,0c0.439926,0 0.796967,-0.348922 0.796967,-0.778844c0,-0.429922 -0.357041,-0.778844 -0.796967,-0.778844l-33.47263,0zm0,3.115376c-0.439926,0 -0.796967,0.348922 -0.796967,0.778844c0,0.429922 0.357041,0.778844 0.796967,0.778844l1.593935,0c0.439926,0 0.796967,-0.348922 0.796967,-0.778844c0,-0.429922 -0.357041,-0.778844 -0.796967,-0.778844l-1.593935,0zm31.878695,0c-0.439926,0 -0.796967,0.348922 -0.796967,0.778844c0,0.429922 0.357041,0.778844 0.796967,0.778844l1.593935,0c0.439926,0 0.796967,-0.348922 0.796967,-0.778844c0,-0.429922 -0.357041,-0.778844 -0.796967,-0.778844l-1.593935,0zm43.798968,3.115376l2.390902,0l2.390902,0l0,1.557688l-4.781804,0l0,-1.557688zm0,3.115376l4.781804,0l0,0.778844c0,1.288208 -1.071124,2.336532 -2.390902,2.336532c-1.318184,0 -2.390902,-1.048324 -2.390902,-2.336532l0,-0.778844zm-78.865533,3.115376c-1.318184,0 -2.390902,1.048324 -2.390902,2.336532l0,14.019192c0,1.288208 1.072718,2.336532 2.390902,2.336532l23.909022,0c1.318184,0 2.390902,-1.048324 2.390902,-2.336532l0,-14.019192c0,-1.288208 -1.072718,-2.336532 -2.390902,-2.336532l-23.909022,0zm31.878695,0c-1.318184,0 -2.390902,1.048324 -2.390902,2.336532l0,14.019192c0,1.288208 1.072718,2.336532 2.390902,2.336532l23.909022,0c1.318184,0 2.390902,-1.048324 2.390902,-2.336532l0,-14.019192c0,-1.288208 -1.072718,-2.336532 -2.390902,-2.336532l-23.909022,0zm-31.878695,1.557688l23.909022,0c0.438332,0 0.796967,0.348922 0.796967,0.778844l0,14.019192c0,0.429922 -0.358635,0.778844 -0.796967,0.778844l-23.909022,0c-0.438332,0 -0.796967,-0.348922 -0.796967,-0.778844l0,-14.019192c0,-0.429922 0.358635,-0.778844 0.796967,-0.778844zm31.878695,0l23.909022,0c0.438332,0 0.796967,0.348922 0.796967,0.778844l0,14.019192c0,0.429922 -0.358635,0.778844 -0.796967,0.778844l-23.909022,0c-0.438332,0 -0.796967,-0.348922 -0.796967,-0.778844l0,-14.019192c0,-0.429922 0.358635,-0.778844 0.796967,-0.778844zm-23.909022,3.115376c-0.439926,0 -0.796967,0.348922 -0.796967,0.778844l0,4.469225l0,3.319215c0,0.429922 0.357041,0.778844 0.796967,0.778844l0.208582,0l7.761092,0c0.439926,0 0.796967,-0.348922 0.796967,-0.778844l0,-3.428736l0,-4.359704c0,-0.429922 -0.357041,-0.778844 -0.796967,-0.778844l-7.969674,0zm0.796967,1.557688l6.375739,0l0,1.700684l-0.859226,-0.839703c-0.310817,-0.303749 -0.816142,-0.303749 -1.12696,0l-1.145641,1.116551l-1.142532,-1.116551c-0.310817,-0.303749 -0.816142,-0.303749 -1.12696,0l-0.97442,0.949224l0,-1.810205zm26.299924,0c-0.439926,0 -0.796967,0.348922 -0.796967,0.778844c0,0.429922 0.357041,0.778844 0.796967,0.778844l17.533282,0c0.439926,0 0.796967,-0.348922 0.796967,-0.778844c0,-0.429922 -0.357041,-0.778844 -0.796967,-0.778844l-17.533282,0zm-24.762032,2.512987l0.579061,0.565877l-2.116953,2.07185l0,-1.137844l1.537892,-1.499882zm3.415133,0l1.425822,1.390361l0,2.327404l-0.003108,0l-5.22699,0l3.804276,-3.717765zm21.346899,0.602389a0.796967,0.778844 0 0 0 -0.796967,0.778844a0.796967,0.778844 0 0 0 0.796967,0.778844a0.796967,0.778844 0 0 0 0.796967,-0.778844a0.796967,0.778844 0 0 0 -0.796967,-0.778844zm3.18787,0c-0.439926,0 -0.796967,0.348922 -0.796967,0.778844c0,0.429922 0.357041,0.778844 0.796967,0.778844l4.781804,0c0.439926,0 0.796967,-0.348922 0.796967,-0.778844c0,-0.429922 -0.357041,-0.778844 -0.796967,-0.778844l-4.781804,0zm-3.18787,3.115376a0.796967,0.778844 0 0 0 -0.796967,0.778844a0.796967,0.778844 0 0 0 0.796967,0.778844a0.796967,0.778844 0 0 0 0.796967,-0.778844a0.796967,0.778844 0 0 0 -0.796967,-0.778844zm3.18787,0c-0.439926,0 -0.796967,0.348922 -0.796967,0.778844c0,0.429922 0.357041,0.778844 0.796967,0.778844l4.781804,0c0.439926,0 0.796967,-0.348922 0.796967,-0.778844c0,-0.429922 -0.357041,-0.778844 -0.796967,-0.778844l-4.781804,0z"/>
 </g>
</svg>