<svg width="210" height="210" xmlns="http://www.w3.org/2000/svg">
 <g>
  <title>background</title>
  <rect x="-1" y="-1" width="212" height="212" id="canvas_background" fill="none"/>
 </g>

 <g>
  <title>Layer 1</title>
  <g id="svg_1">
   <path fill="#000111" d="m186.112,156.85c-0.524,-1.574 -1.837,-2.887 -3.675,-3.675c-1.05,-0.524 -2.362,-0.787 -3.675,-1.05c-1.05,-1.575 -2.888,-2.1 -3.675,-2.362c-2.363,-0.788 -4.726,-1.05 -7.088,-1.05c-1.05,-1.313 -2.888,-2.888 -6.037,-2.888c-0.525,0 -1.051,0 -1.575,0c-0.788,0 -1.313,0.263 -2.101,0.524c-0.787,0.263 -1.837,0.525 -3.149,0.788c-0.788,0.263 -1.575,0.787 -2.101,1.575c-0.524,0.787 -0.524,1.837 -0.262,2.625c0.524,1.313 1.837,2.362 3.412,2.362c0.263,0 0.787,0 1.05,-0.263c1.05,-0.263 1.838,-0.525 2.888,-0.787c0.525,0 0.787,-0.263 1.313,-0.263c0.787,0 1.05,0 1.313,0c0.263,0.524 0.525,1.313 1.313,1.837c0.787,0.525 1.575,0.788 2.625,0.788c0.525,0 0.787,0 1.313,0c1.838,0 3.675,0.263 4.987,0.787l0.525,0.788c0.263,0.524 1.05,1.313 2.1,1.837c-13.125,4.463 -22.313,10.237 -23.362,11.025c-11.287,7.612 -34.125,15.75 -34.912,16.274c-9.976,3.676 -17.325,4.463 -25.463,2.888c-6.3,-1.313 -12.075,-3.938 -17.587,-6.825c-2.888,-1.574 -6.038,-2.887 -9.188,-4.199c-1.313,-0.525 -14.438,-5.513 -14.438,-5.513c-1.313,-0.525 -2.888,0.524 -2.888,2.1l0.263,4.726l0.262,2.362c-0.787,0 -1.575,0 -2.362,0.263c-0.263,-0.525 -0.788,-1.051 -1.05,-1.575c-4.463,-7.088 -8.138,-14.438 -10.5,-22.313c-0.788,-2.362 -1.313,-4.463 -1.838,-6.825c-0.262,-1.05 -0.525,-2.1 -0.787,-3.412c-0.263,-1.313 -0.525,-2.888 -0.788,-4.2c4.725,-0.263 9.45,-0.788 14.175,-1.05l0.263,3.412l0.262,3.412l6.563,-0.524c2.363,-0.263 6.3,-0.788 8.663,-1.313c3.413,-0.525 7.087,-0.263 11.288,0.787c2.625,0.788 4.987,1.575 7.875,2.625c1.837,0.788 3.675,1.313 5.513,1.838c2.1,0.787 4.462,1.575 6.563,2.1l0.26,0c5.775,2.101 11.813,4.2 18.375,4.987c1.313,0.263 2.625,0.263 3.675,0.263c2.362,0.263 4.725,0.263 7.087,0c2.625,-0.263 5.25,-0.524 7.875,-0.787s4.988,-0.788 7.875,-1.05c0.525,0 0.788,0 1.313,0c2.363,-0.263 4.726,0 6.563,0.262c0.263,0 0.263,0.263 0.263,0.263c0,0.263 0,0.788 0,0.788c-0.787,1.05 -2.625,1.574 -4.462,1.837l-0.264,0c-0.525,0.263 -1.05,0.263 -1.575,0.525c-6.3,2.1 -13.125,3.149 -22.313,3.938c-2.888,0.263 -5.513,0.263 -7.875,0.263c-0.525,0 -1.313,0 -1.838,0c-0.787,0 -1.837,-0.263 -2.625,0c-0.788,0 -1.837,0.524 -2.363,1.313c-0.525,0.787 -0.787,1.574 -0.787,2.362c0,1.837 1.575,3.149 3.412,3.149l0.264,0c0.525,0 1.05,0 1.575,0c0.524,0 1.313,0 1.837,0c2.625,0 5.25,0 8.926,-0.262c9.712,-0.788 17.063,-2.101 23.887,-4.2c0.525,-0.263 1.051,-0.263 1.575,-0.525c2.888,-0.787 6.3,-1.575 8.4,-4.725c1.313,-2.101 1.837,-4.726 0.787,-7.088c-0.787,-2.362 -2.625,-3.938 -4.987,-4.462c-2.625,-0.788 -5.775,-0.788 -8.662,-0.525c-0.525,0 -1.313,0 -1.575,0.263c-2.625,0.263 -5.25,0.524 -7.875,1.05l-0.263,0c-2.362,0.263 -4.987,0.525 -7.35,0.787c-1.838,0.263 -3.938,0.263 -5.775,0c-1.05,0 -2.1,-0.262 -3.15,-0.262c-5.774,-0.788 -11.287,-2.625 -17.062,-4.726l-0.263,0c-2.1,-0.787 -4.462,-1.575 -6.825,-2.362c-1.575,-0.525 -3.413,-1.05 -4.988,-1.838l0,0c-2.625,-1.05 -5.512,-1.837 -8.4,-2.625c-6.563,-1.837 -13.125,-1.574 -18.375,0.263c-1.313,0 -2.362,0.263 -3.675,0.263c0,-0.787 0,-1.838 -0.263,-2.625c-0.263,-2.625 -1.575,-3.938 -4.462,-3.675c-7.35,0.524 -14.7,1.05 -22.05,1.575c-0.525,0 -1.05,0.262 -1.837,0.262c0.525,3.938 1.05,7.613 1.837,11.551c0.525,2.362 1.05,4.987 1.575,7.35c2.888,10.763 7.875,21 14.175,30.45c0.263,0.262 0.263,0.524 0.526,0.787c0.262,0.525 1.313,1.05 1.837,1.05c2.362,0 4.987,-0.262 7.35,-0.524c2.1,-0.263 3.675,-2.101 3.675,-4.2l0,0c0,-0.787 0,-1.575 0,-2.1c5.775,1.313 10.763,3.675 15.75,6.563c4.987,2.887 10.5,5.25 16.013,6.563c1.313,0.262 2.625,0.524 3.938,0.787c2.887,0.525 5.775,0.787 8.662,0.787c6.3,0 13.125,-1.313 20.476,-3.938c0.262,0 24.149,-8.662 36.487,-17.063c0,0 11.55,-7.35 26.774,-11.813c1.313,-0.524 2.101,-1.313 2.625,-2.1c0.525,-1.049 0.788,-2.887 0.262,-4.462z" id="svg_2"/>
  </g>
  <g id="svg_5">
   <path fill="#000111" d="m112.938,14.387817c-6.275,0 -11.85,2.145 -15.544,5.784l-16.267,0c-1.598,0.005 -2.888,1.305 -2.882,2.903c0.002,0.54 0.155,1.068 0.442,1.525l15.318,24.038c-5.998,3.538 -11.361,8.507 -15.814,14.188c-8.751,11.162 -14.278,24.985 -14.278,36.871c0,20.044 16.052,36.301 36.916,40.847c1.486,0.322 2.923,-0.771 3.21,-2.442c0.287,-1.673 -0.686,-3.29 -2.171,-3.612c-19.014,-4.143 -32.443,-18.476 -32.443,-34.792c0,-9.676 4.883,-22.607 12.877,-32.805c7.995,-10.197 18.868,-17.622 30.636,-17.622c11.767,0 22.64,7.424 30.636,17.622c7.994,10.198 12.877,23.128 12.877,32.805c0,9.675 -4.585,18.552 -12.426,25.167s-18.863,10.8 -31.087,10.8c-1.509,0.184 -2.599,1.709 -2.435,3.405c0.139,1.443 1.151,2.583 2.435,2.739c13.329,0 25.48,-4.55 34.386,-12.063c8.905,-7.515 14.64,-18.163 14.64,-30.048c0,-11.886 -5.527,-25.709 -14.278,-36.871c-8.751,-11.162 -20.961,-19.701 -34.747,-19.701c-4.799,0 -9.398,1.075 -13.736,2.892l-12.787,-20.062l12.064,0c0.855,-0.002 1.666,-0.383 2.214,-1.04c2.15,-2.578 6.809,-4.744 12.245,-4.744c5.436,0 10.094,2.167 12.245,4.744c0.548,0.657 1.358,1.038 2.214,1.04l12.064,0l-7.32,11.477c-0.861,1.348 -0.467,3.138 0.879,4c1.349,0.861 3.139,0.467 4,-0.88c0,0 0.001,-0.001 0.001,-0.002l10.167,-15.95c0.849,-1.354 0.438,-3.138 -0.915,-3.987c-0.457,-0.287 -0.985,-0.439 -1.525,-0.441l-16.266,0c-3.697,-3.64 -9.271,-5.785 -15.545,-5.785zm-0.317,50.562c-1.49,0.164 -2.607,1.438 -2.575,2.937l0,1.672c-2.688,0.445 -5.147,1.529 -7.14,3.208c-2.686,2.265 -4.428,5.714 -4.428,9.579c0,5.629 3.954,9.187 7.365,10.89c1.528,0.763 3,1.266 4.203,1.582l0,14.64c-3.826,-0.927 -6.823,-3.3 -6.823,-3.3c-1.161,-1.096 -2.992,-1.044 -4.088,0.117s-1.044,2.991 0.117,4.089c0.084,0.079 0.173,0.154 0.267,0.223c0,0 4.314,3.853 10.528,4.836l0,1.626c-0.023,1.597 1.253,2.91 2.851,2.933s2.91,-1.254 2.932,-2.852c0.001,-0.026 0.001,-0.054 0,-0.081l0,-1.672c2.688,-0.457 5.147,-1.574 7.14,-3.253c2.687,-2.265 4.429,-5.669 4.429,-9.534c0,-5.629 -3.955,-9.232 -7.365,-10.935c-1.526,-0.763 -3.001,-1.221 -4.203,-1.537l0,-14.595c3.826,0.926 6.823,3.253 6.823,3.253c1.162,1.097 2.992,1.044 4.088,-0.117c1.099,-1.161 1.046,-2.992 -0.115,-4.088c-0.084,-0.08 -0.174,-0.154 -0.268,-0.223c0,0 -4.313,-3.807 -10.528,-4.79l0,-1.672c0.036,-1.597 -1.231,-2.919 -2.829,-2.954c-0.129,-0.001 -0.255,0.004 -0.381,0.018zm-2.575,10.528l0,13.239c-0.512,-0.188 -1.051,-0.413 -1.582,-0.678c-2.373,-1.185 -4.202,-2.631 -4.202,-5.693c0,-2.189 0.873,-3.868 2.395,-5.151c0.909,-0.767 2.06,-1.364 3.389,-1.717zm5.782,20.74c0.512,0.187 1.052,0.367 1.582,0.632c2.374,1.185 4.202,2.676 4.202,5.739c0,2.188 -0.872,3.822 -2.395,5.105c-0.909,0.767 -2.062,1.396 -3.39,1.763l0,-13.239l0.001,0z" id="svg_6"/>
  </g>
 </g>
</svg>