<svg xmlns="http://www.w3.org/2000/svg" width="210px" height="210px"  xmlns:xlink="http://www.w3.org/1999/xlink" viewBox="-1 -1 212 212" preserveAspectRatio="xMidYMid meet"><rect id="svgEditorBackground" x="-1" y="-1" width="212" height="212" style="fill: none; stroke: none;"/>
 <g>
  <title>background</title>
  <rect x="-1" y="-1" width="212" height="212" id="canvas_background" fill="none"/>
 </g>

 <g>
  <title>Layer 1</title>
  <g id="svg_1">
   <path fill="#F5AB37" d="M186.112,156.85c-0.5240000000000009,-1.5740000000000123,-1.836999999999989,-2.8870000000000005,-3.6750000000000114,-3.6750000000000114c-1.0500000000000114,-0.5240000000000009,-2.3619999999999948,-0.7870000000000061,-3.6750000000000114,-1.0500000000000114c-1.0500000000000114,-1.5749999999999886,-2.8880000000000052,-2.0999999999999943,-3.6750000000000114,-2.3619999999999948c-2.3629999999999995,-0.7880000000000109,-4.725999999999999,-1.0500000000000114,-7.087999999999994,-1.0500000000000114c-1.0500000000000114,-1.3129999999999882,-2.8880000000000052,-2.8880000000000052,-6.037000000000006,-2.8880000000000052c-0.5250000000000057,0,-1.0509999999999877,0,-1.5749999999999886,0c-0.7880000000000109,0,-1.3129999999999882,0.26300000000000523,-2.100999999999999,0.5240000000000009c-0.7870000000000061,0.26300000000000523,-1.836999999999989,0.5250000000000057,-3.149000000000001,0.7880000000000109c-0.7880000000000109,0.26300000000000523,-1.5749999999999886,0.7870000000000061,-2.100999999999999,1.5749999999999886c-0.5240000000000009,0.7870000000000061,-0.5240000000000009,1.836999999999989,-0.26200000000000045,2.625c0.5240000000000009,1.3129999999999882,1.836999999999989,2.3619999999999948,3.412000000000006,2.3619999999999948c0.26300000000000523,0,0.7870000000000061,0,1.0500000000000114,-0.26300000000000523c1.0500000000000114,-0.26300000000000523,1.8379999999999939,-0.5250000000000057,2.8880000000000052,-0.7870000000000061c0.5250000000000057,0,0.7870000000000061,-0.26300000000000523,1.3129999999999882,-0.26300000000000523c0.7870000000000061,0,1.0500000000000114,0,1.3129999999999882,0c0.26300000000000523,0.5240000000000009,0.5250000000000057,1.3129999999999882,1.3129999999999882,1.836999999999989c0.7870000000000061,0.5250000000000057,1.5749999999999886,0.7880000000000109,2.625,0.7880000000000109c0.5250000000000057,0,0.7870000000000061,0,1.3129999999999882,0c1.8379999999999939,0,3.6750000000000114,0.26300000000000523,4.986999999999995,0.7870000000000061l0.5250000000000057,0.7880000000000109c0.26300000000000523,0.5240000000000009,1.0500000000000114,1.3129999999999882,2.0999999999999943,1.836999999999989c-13.125,4.462999999999994,-22.312999999999988,10.236999999999995,-23.361999999999995,11.025000000000006c-11.287000000000006,7.611999999999995,-34.125,15.75,-34.912000000000006,16.274c-9.975999999999999,3.6759999999999877,-17.325000000000003,4.462999999999994,-25.462999999999994,2.8880000000000052c-6.299999999999997,-1.3129999999999882,-12.075000000000003,-3.937999999999988,-17.587000000000003,-6.824999999999989c-2.8880000000000052,-1.5740000000000123,-6.037999999999997,-2.8870000000000005,-9.188000000000002,-4.199000000000012c-1.3130000000000024,-0.5250000000000057,-14.438000000000002,-5.513000000000005,-14.438000000000002,-5.513000000000005c-1.3130000000000024,-0.5250000000000057,-2.887999999999998,0.5240000000000009,-2.887999999999998,2.0999999999999943l0.2629999999999981,4.725999999999999l0.26200000000000045,2.3619999999999948c-0.786999999999999,0,-1.5750000000000028,0,-2.362000000000002,0.26300000000000523c-0.2629999999999981,-0.5250000000000057,-0.7879999999999967,-1.0509999999999877,-1.0499999999999972,-1.5749999999999886c-4.463000000000001,-7.087999999999994,-8.137999999999998,-14.437999999999988,-10.5,-22.312999999999988c-0.7879999999999967,-2.3619999999999948,-1.3130000000000024,-4.462999999999994,-1.838000000000001,-6.824999999999989c-0.26200000000000045,-1.0500000000000114,-0.5249999999999986,-2.0999999999999943,-0.786999999999999,-3.412000000000006c-0.2630000000000017,-1.3129999999999882,-0.5249999999999986,-2.8880000000000052,-0.7880000000000003,-4.199999999999989c4.724999999999998,-0.26300000000000523,9.45,-0.7880000000000109,14.175,-1.0500000000000114l0.2629999999999981,3.412000000000006l0.26200000000000045,3.412000000000006l6.563000000000002,-0.5240000000000009c2.3629999999999995,-0.26300000000000523,6.299999999999997,-0.7880000000000109,8.662999999999997,-1.3129999999999882c3.4129999999999967,-0.5250000000000057,7.087000000000003,-0.26300000000000523,11.287999999999997,0.7870000000000061c2.625,0.7880000000000109,4.986999999999995,1.5749999999999886,7.875,2.625c1.8370000000000033,0.7880000000000109,3.674999999999997,1.3129999999999882,5.513000000000005,1.8379999999999939c2.0999999999999943,0.7870000000000061,4.462000000000003,1.5749999999999886,6.563000000000002,2.0999999999999943l0.2600000000000051,0c5.775000000000006,2.100999999999999,11.813000000000002,4.199999999999989,18.375,4.986999999999995c1.3130000000000024,0.26300000000000523,2.625,0.26300000000000523,3.674999999999997,0.26300000000000523c2.3619999999999948,0.26300000000000523,4.724999999999994,0.26300000000000523,7.087000000000003,0c2.625,-0.26300000000000523,5.25,-0.5240000000000009,7.875,-0.7870000000000061s4.9879999999999995,-0.7880000000000109,7.875,-1.0500000000000114c0.5250000000000057,0,0.7880000000000109,0,1.3129999999999882,0c2.3629999999999995,-0.26300000000000523,4.725999999999999,0,6.562999999999988,0.26200000000000045c0.26300000000000523,0,0.26300000000000523,0.26300000000000523,0.26300000000000523,0.26300000000000523c0,0.26300000000000523,0,0.7880000000000109,0,0.7880000000000109c-0.7870000000000061,1.0500000000000114,-2.625,1.5740000000000123,-4.461999999999989,1.836999999999989l-0.26400000000001,0c-0.5250000000000057,0.26300000000000523,-1.0500000000000114,0.26300000000000523,-1.5749999999999886,0.5250000000000057c-6.300000000000011,2.0999999999999943,-13.125,3.149000000000001,-22.313000000000002,3.937999999999988c-2.8880000000000052,0.26300000000000523,-5.513000000000005,0.26300000000000523,-7.875,0.26300000000000523c-0.5250000000000057,0,-1.3130000000000024,0,-1.8379999999999939,0c-0.7870000000000061,0,-1.8370000000000033,-0.26300000000000523,-2.625,0c-0.7879999999999967,0,-1.8370000000000033,0.5240000000000009,-2.3629999999999995,1.3129999999999882c-0.5250000000000057,0.7870000000000061,-0.7870000000000061,1.5740000000000123,-0.7870000000000061,2.3619999999999948c0,1.836999999999989,1.5750000000000028,3.149000000000001,3.412000000000006,3.149000000000001l0.2639999999999958,0c0.5250000000000057,0,1.0499999999999972,0,1.5750000000000028,0c0.5240000000000009,0,1.3130000000000024,0,1.8370000000000033,0c2.625,0,5.25,0,8.926000000000002,-0.26200000000000045c9.712000000000003,-0.7880000000000109,17.063000000000002,-2.100999999999999,23.887000000000015,-4.199999999999989c0.5250000000000057,-0.26300000000000523,1.0509999999999877,-0.26300000000000523,1.5749999999999886,-0.5250000000000057c2.8880000000000052,-0.7870000000000061,6.300000000000011,-1.5749999999999886,8.400000000000006,-4.724999999999994c1.3129999999999882,-2.100999999999999,1.836999999999989,-4.725999999999999,0.7870000000000061,-7.087999999999994c-0.7870000000000061,-2.3619999999999948,-2.625,-3.937999999999988,-4.986999999999995,-4.461999999999989c-2.625,-0.7880000000000109,-5.775000000000006,-0.7880000000000109,-8.662000000000006,-0.5250000000000057c-0.5250000000000057,0,-1.3129999999999882,0,-1.5749999999999886,0.26300000000000523c-2.625,0.26300000000000523,-5.25,0.5240000000000009,-7.875,1.0500000000000114l-0.26300000000000523,0c-2.3619999999999948,0.26300000000000523,-4.986999999999995,0.5250000000000057,-7.349999999999994,0.7870000000000061c-1.8379999999999939,0.26300000000000523,-3.9380000000000024,0.26300000000000523,-5.775000000000006,0c-1.0499999999999972,0,-2.0999999999999943,-0.26200000000000045,-3.1500000000000057,-0.26200000000000045c-5.774000000000001,-0.7880000000000109,-11.287000000000006,-2.625,-17.061999999999998,-4.725999999999999l-0.26300000000000523,0c-2.0999999999999943,-0.7870000000000061,-4.462000000000003,-1.5749999999999886,-6.825000000000003,-2.3619999999999948c-1.5750000000000028,-0.5250000000000057,-3.4129999999999967,-1.0500000000000114,-4.9879999999999995,-1.8379999999999939l0,0c-2.625,-1.0500000000000114,-5.5120000000000005,-1.836999999999989,-8.400000000000006,-2.625c-6.563000000000002,-1.836999999999989,-13.125,-1.5740000000000123,-18.375,0.26300000000000523c-1.3130000000000024,0,-2.362000000000002,0.26300000000000523,-3.674999999999997,0.26300000000000523c0,-0.7870000000000061,0,-1.8379999999999939,-0.2629999999999981,-2.625c-0.2629999999999981,-2.625,-1.5750000000000028,-3.937999999999988,-4.461999999999996,-3.6750000000000114c-7.350000000000001,0.5240000000000009,-14.700000000000003,1.0500000000000114,-22.05,1.5749999999999886c-0.5249999999999986,0,-1.0500000000000007,0.26200000000000045,-1.8369999999999997,0.26200000000000045c0.5249999999999986,3.937999999999988,1.0500000000000007,7.6129999999999995,1.8369999999999997,11.550999999999988c0.5249999999999986,2.3619999999999948,1.0500000000000007,4.986999999999995,1.5749999999999993,7.349999999999994c2.887999999999998,10.763000000000005,7.875,21,14.175000000000004,30.44999999999999c0.2629999999999981,0.26200000000000045,0.2629999999999981,0.5240000000000009,0.5260000000000034,0.7870000000000061c0.26200000000000045,0.5250000000000057,1.3130000000000024,1.0500000000000114,1.8370000000000033,1.0500000000000114c2.362000000000002,0,4.987000000000002,-0.26200000000000045,7.350000000000001,-0.5240000000000009c2.1000000000000014,-0.26300000000000523,3.674999999999997,-2.100999999999999,3.674999999999997,-4.199999999999989l0,0c0,-0.7870000000000061,0,-1.5749999999999886,0,-2.0999999999999943c5.774999999999999,1.3129999999999882,10.763000000000005,3.6750000000000114,15.75,6.562999999999988c4.986999999999995,2.8870000000000005,10.5,5.25,16.013000000000005,6.562999999999988c1.3130000000000024,0.26200000000000045,2.625,0.5240000000000009,3.9380000000000024,0.7870000000000061c2.8870000000000005,0.5250000000000057,5.775000000000006,0.7870000000000061,8.662000000000006,0.7870000000000061c6.299999999999997,0,13.125,-1.3129999999999882,20.476,-3.937999999999988c0.26200000000000045,0,24.149000000000015,-8.662000000000006,36.48700000000001,-17.062999999999988c0,0,11.550000000000011,-7.349999999999994,26.774,-11.812999999999988c1.3129999999999882,-0.5240000000000009,2.100999999999999,-1.3129999999999882,2.625,-2.0999999999999943c0.5250000000000057,-1.0490000000000066,0.7880000000000109,-2.8870000000000005,0.26200000000000045,-4.461999999999989Z" id="svg_2"/>
  </g>
  <g id="svg_5">
   <path fill="#F5AB37" d="M112.938,14.387817c-6.275000000000006,0,-11.849999999999994,2.1450000000000014,-15.543999999999997,5.784000000000001l-16.266999999999996,0c-1.597999999999999,0.004999999999999005,-2.8880000000000052,1.3049999999999997,-2.882000000000005,2.9029999999999987c0.001999999999995339,0.5399999999999991,0.15500000000000114,1.0680000000000014,0.44199999999999307,1.5249999999999986l15.317999999999998,24.038c-5.998000000000005,3.5379999999999967,-11.361000000000004,8.506999999999998,-15.813999999999993,14.188000000000002c-8.751000000000005,11.162000000000006,-14.277999999999999,24.985,-14.277999999999999,36.87100000000001c0,20.043999999999997,16.052,36.30099999999999,36.916000000000004,40.84700000000001c1.4860000000000042,0.32200000000000273,2.923000000000002,-0.7709999999999866,3.2099999999999937,-2.4420000000000073c0.28700000000000614,-1.6730000000000018,-0.686000000000007,-3.289999999999992,-2.1710000000000065,-3.6119999999999948c-19.013999999999996,-4.143000000000001,-32.443,-18.476,-32.443,-34.792c0,-9.676000000000002,4.882999999999996,-22.607,12.876999999999995,-32.80500000000001c7.9950000000000045,-10.197000000000003,18.867999999999995,-17.622,30.635999999999996,-17.622c11.766999999999996,0,22.639999999999986,7.4239999999999995,30.635999999999996,17.622c7.994,10.198000000000008,12.87700000000001,23.128,12.87700000000001,32.80500000000001c0,9.674999999999997,-4.585000000000008,18.551999999999992,-12.425999999999988,25.167s-18.863,10.800000000000011,-31.087000000000003,10.800000000000011c-1.5090000000000003,0.1839999999999975,-2.5990000000000038,1.7090000000000032,-2.4350000000000023,3.405000000000001c0.1389999999999958,1.443000000000012,1.1509999999999962,2.5829999999999984,2.4350000000000023,2.7390000000000043c13.328999999999994,0,25.480000000000004,-4.550000000000011,34.38600000000001,-12.062999999999988c8.905000000000001,-7.515000000000001,14.639999999999986,-18.162999999999997,14.639999999999986,-30.048000000000002c0,-11.885999999999996,-5.526999999999987,-25.709000000000003,-14.277999999999992,-36.871c-8.751000000000005,-11.161999999999999,-20.961,-19.701,-34.747,-19.701c-4.799000000000007,0,-9.397999999999996,1.0750000000000028,-13.736000000000004,2.892000000000003l-12.787000000000006,-20.062l12.063999999999993,0c0.855000000000004,-0.0019999999999988916,1.6659999999999968,-0.3829999999999991,2.2139999999999986,-1.0399999999999991c2.1500000000000057,-2.5779999999999994,6.8089999999999975,-4.744,12.245000000000005,-4.744c5.436000000000007,0,10.093999999999994,2.166999999999998,12.245000000000005,4.744c0.5480000000000018,0.657,1.358000000000004,1.0380000000000003,2.2139999999999986,1.0399999999999991l12.063999999999993,0l-7.319999999999993,11.477c-0.86099999999999,1.347999999999999,-0.46700000000001296,3.137999999999998,0.8789999999999907,4c1.3489999999999895,0.8609999999999971,3.13900000000001,0.46699999999999875,4,-0.8800000000000026c0,0,0.0010000000000047748,-0.0009999999999976694,0.0010000000000047748,-0.0020000000000024443l10.167000000000002,-15.95c0.8489999999999895,-1.3539999999999992,0.4379999999999882,-3.1380000000000017,-0.914999999999992,-3.9869999999999983c-0.45699999999999363,-0.28699999999999903,-0.9850000000000136,-0.43900000000000006,-1.5250000000000057,-0.44099999999999895l-16.26599999999999,0c-3.6970000000000027,-3.6400000000000006,-9.271,-5.785,-15.545000000000002,-5.785ZM112.62100000000001,64.949817c-1.4899999999999949,0.16400000000000148,-2.6069999999999993,1.4380000000000024,-2.575000000000003,2.9369999999999976l0,1.671999999999997c-2.6880000000000024,0.4449999999999932,-5.147000000000006,1.5289999999999964,-7.140000000000001,3.2079999999999984c-2.686000000000007,2.2650000000000006,-4.427999999999997,5.713999999999999,-4.427999999999997,9.578999999999994c0,5.629000000000005,3.9539999999999935,9.186999999999998,7.364999999999995,10.89c1.5280000000000058,0.7630000000000052,3,1.2660000000000053,4.203000000000003,1.5819999999999936l0,14.64c-3.8259999999999934,-0.9270000000000067,-6.822999999999993,-3.299999999999997,-6.822999999999993,-3.299999999999997c-1.1610000000000014,-1.0960000000000036,-2.9920000000000044,-1.043999999999997,-4.087999999999994,0.11700000000000443s-1.043999999999997,2.9909999999999997,0.11700000000000443,4.088999999999999c0.08400000000000318,0.07899999999999352,0.17300000000000182,0.15399999999999636,0.2669999999999959,0.22299999999999898c0,0,4.314000000000007,3.8529999999999944,10.528000000000006,4.8359999999999985l0,1.6260000000000048c-0.022999999999996135,1.5969999999999942,1.2530000000000001,2.9099999999999966,2.850999999999999,2.9329999999999927s2.9099999999999966,-1.2540000000000049,2.932000000000002,-2.852000000000004c0.0010000000000047748,-0.02599999999999625,0.0010000000000047748,-0.054000000000002046,0,-0.08100000000000307l0,-1.671999999999997c2.6880000000000024,-0.45699999999999363,5.147000000000006,-1.573999999999998,7.140000000000001,-3.253c2.6869999999999976,-2.2650000000000006,4.429000000000002,-5.668999999999997,4.429000000000002,-9.534000000000006c0,-5.629000000000005,-3.9549999999999983,-9.232,-7.364999999999995,-10.935000000000002c-1.5259999999999962,-0.7630000000000052,-3.0010000000000048,-1.2210000000000036,-4.203000000000003,-1.5370000000000061l0,-14.594999999999999c3.8259999999999934,0.9260000000000019,6.822999999999993,3.253,6.822999999999993,3.253c1.1620000000000061,1.0969999999999942,2.9920000000000044,1.043999999999997,4.087999999999994,-0.11700000000000443c1.0990000000000038,-1.1610000000000014,1.0460000000000065,-2.9920000000000044,-0.11499999999999488,-4.087999999999994c-0.08400000000000318,-0.0799999999999983,-0.1740000000000066,-0.15399999999999636,-0.2680000000000007,-0.22299999999999898c0,0,-4.313000000000002,-3.807000000000002,-10.528000000000006,-4.790000000000006l0,-1.671999999999997c0.036000000000001364,-1.5969999999999942,-1.2309999999999945,-2.918999999999997,-2.8289999999999935,-2.9539999999999935c-0.1290000000000049,-0.0010000000000047748,-0.25499999999999545,0.0040000000000048885,-0.3810000000000002,0.018000000000000682ZM110.046,75.477817l0,13.239000000000004c-0.5120000000000005,-0.1880000000000024,-1.051000000000002,-0.4129999999999967,-1.5819999999999936,-0.6779999999999973c-2.3730000000000047,-1.1850000000000023,-4.201999999999998,-2.6310000000000002,-4.201999999999998,-5.692999999999998c0,-2.188999999999993,0.8730000000000047,-3.867999999999995,2.394999999999996,-5.150999999999996c0.909000000000006,-0.7669999999999959,2.0600000000000023,-1.3640000000000043,3.388999999999996,-1.7169999999999987ZM115.828,96.217817c0.5120000000000005,0.1869999999999976,1.0520000000000067,0.36700000000000443,1.5819999999999936,0.632000000000005c2.3739999999999952,1.1850000000000023,4.201999999999998,2.676000000000002,4.201999999999998,5.739000000000004c0,2.1880000000000024,-0.8719999999999999,3.8220000000000027,-2.394999999999996,5.105000000000004c-0.909000000000006,0.7669999999999959,-2.0619999999999976,1.3960000000000008,-3.3900000000000006,1.7630000000000052l0,-13.239000000000004l0.0010000000000047748,0Z" id="svg_6"/>
  </g>
 </g>
</svg>