<svg width="210" height="210" xmlns="http://www.w3.org/2000/svg">

 <g>
  <title>background</title>
  <rect fill="none" id="canvas_background" height="212" width="212" y="-1" x="-1"/>
 </g>
 <g>
  <title>Layer 1</title>
  <path stroke="null" id="svg_1" d="m104.847689,192.801999c-19.324932,0 -35.043807,-15.137729 -35.043807,-33.741795c0,-18.60803 15.720932,-33.743777 35.043807,-33.743777s35.043807,15.137729 35.043807,33.743777c0,18.604066 -15.718874,33.741795 -35.043807,33.741795zm0,-60.550914c-15.350447,0 -27.839923,12.02615 -27.839923,26.807138s12.489476,26.807138 27.839923,26.807138s27.839923,-12.024169 27.839923,-26.805156s-12.489476,-26.809119 -27.839923,-26.809119zm0.04734,51.701745c-1.99033,0 -3.601942,-1.551825 -3.601942,-3.46832l0,-0.981039c-3.665748,-0.60646 -7.051573,-2.318819 -8.430602,-5.154914c-0.843884,-1.73416 -0.065864,-3.799296 1.735107,-4.611874c1.798913,-0.812578 3.943612,-0.065403 4.789554,1.670739c0.475456,0.673845 3.857165,1.938295 7.094796,1.177247c2.854796,-0.667899 3.379651,-2.362421 3.523728,-3.579306c0.288155,-2.417914 -0.598951,-3.27013 -6.777825,-6.518459l-0.864466,-0.453854c-4.913049,-2.624032 -11.614719,-6.207301 -9.330058,-14.557033c0.905631,-3.31175 4.108272,-6.118116 8.259767,-7.305272l0,-1.942259c0,-1.916494 1.611612,-3.46832 3.601942,-3.46832s3.601942,1.551825 3.601942,3.46832l0,1.629119c3.025631,0.604479 5.816621,2.142431 8.014835,4.504852c1.327573,1.426966 1.202019,3.618944 -0.281981,4.897267s-3.758369,1.15941 -5.085942,-0.27152c-2.753942,-2.960954 -6.096544,-2.572502 -7.405592,-2.271254c-2.035612,0.471691 -3.499029,1.656866 -3.737786,2.526919c-0.685398,2.503136 -0.067922,3.555523 5.843379,6.714667l0.835651,0.439981c5.845437,3.073922 11.367728,5.977401 10.48268,13.399605c-0.563961,4.748625 -3.764544,8.201089 -8.665243,9.453648l0,1.234722c0,1.914512 -1.611612,3.466338 -3.601942,3.466338zm-0.04734,-66.502551c-7.471456,0 -15.033476,-2.326747 -15.033476,-6.77016l0,-20.472995l-46.423885,-58.113181c-1.197903,-1.099953 -1.60132,-2.287109 -1.60132,-3.567414c0,-3.769568 3.496971,-6.742413 20.572233,-8.993848c11.415068,-1.506242 26.557632,-2.334675 42.638758,-2.334675s31.22369,0.828433 42.638758,2.334675c17.073204,2.251435 20.572233,5.22428 20.572233,8.993848c0,1.296161 -0.413709,2.501154 -1.652777,3.611016l-46.67705,58.075525l0,20.467049c0,4.93096 -9.220971,6.77016 -15.033476,6.77016zm-7.829592,-8.228836c1.187612,0.525203 3.74602,1.292197 7.829592,1.292197c3.772777,0 6.514369,-0.780867 7.829592,-1.349672l0,-20.136073c0,-0.768976 0.265515,-1.516151 0.75332,-2.122612l40.463185,-50.344145c-1.848311,0.332959 -3.927146,0.654026 -6.257088,0.96122c-11.415068,1.506242 -26.557632,2.334675 -42.638758,2.334675c-16.081127,0 -31.225748,-0.828433 -42.638758,-2.334675c-2.358757,-0.311158 -4.456117,-0.634207 -6.322952,-0.973111l40.234719,50.363964c0.483689,0.608442 0.747146,1.351654 0.747146,2.114684l0,20.193548zm-45.110719,-80.694915c7.195651,1.993788 24.956311,4.393865 53.090564,4.393865s45.892855,-2.400077 53.090564,-4.393865c-7.197709,-1.991806 -24.95837,-4.391884 -53.090564,-4.391884s-45.892855,2.400077 -53.090564,4.391884zm52.940312,59.379613c-2.317592,0 -4.202952,-1.777762 -4.202952,-3.963794s1.885359,-3.963794 4.202952,-3.963794s4.202952,1.777762 4.202952,3.963794s-1.885359,3.963794 -4.202952,3.963794zm-4.88835,-11.766522c-2.317592,0 -4.202952,-1.777762 -4.202952,-3.963794s1.885359,-3.963794 4.202952,-3.963794s4.202952,1.777762 4.202952,3.963794s-1.885359,3.963794 -4.202952,3.963794zm17.750369,-5.820831c-1.588971,0 -3.095612,-0.816542 -3.809825,-2.231616c-1.010602,-2.011625 -0.061748,-4.469178 2.107651,-5.487873c2.189981,-1.016713 4.783379,-0.208099 5.789864,1.799562c1.006485,2.019553 0.049398,4.473141 -2.126175,5.483909c-0.631884,0.297285 -1.304932,0.436017 -1.961515,0.436017zm-30.009321,-2.891588c-2.317592,0 -4.202952,-1.777762 -4.202952,-3.963794s1.885359,-3.963794 4.202952,-3.963794c2.315534,0 4.200893,1.777762 4.200893,3.963794s-1.885359,3.963794 -4.200893,3.963794zm15.259884,-2.229634c-2.315534,0 -4.200893,-1.777762 -4.200893,-3.963794s1.885359,-3.963794 4.200893,-3.963794c2.317592,0 4.202952,1.777762 4.202952,3.963794s-1.885359,3.963794 -4.202952,3.963794zm23.842797,-4.459268c-2.317592,0 -4.202952,-1.777762 -4.202952,-3.963794s1.885359,-3.963794 4.202952,-3.963794c2.315534,0 4.200893,1.777762 4.200893,3.963794s-1.885359,3.963794 -4.200893,3.963794zm-38.503729,-3.551559c-2.315534,0 -4.200893,-1.777762 -4.200893,-3.963794s1.885359,-3.963794 4.200893,-3.963794c2.317592,0 4.202952,1.777762 4.202952,3.963794s-1.885359,3.963794 -4.202952,3.963794zm28.12602,-0.495474c-2.317592,0 -4.202952,-1.777762 -4.202952,-3.963794s1.885359,-3.963794 4.202952,-3.963794s4.202952,1.777762 4.202952,3.963794s-1.885359,3.963794 -4.202952,3.963794zm-14.064039,-4.376028c-2.317592,0 -4.202952,-1.777762 -4.202952,-3.963794s1.885359,-3.963794 4.202952,-3.963794c2.315534,0 4.200893,1.777762 4.200893,3.963794s-1.885359,3.963794 -4.200893,3.963794zm-27.444738,-0.495474c-2.315534,0 -4.200893,-1.777762 -4.200893,-3.963794s1.885359,-3.963794 4.200893,-3.963794c2.317592,0 4.202952,1.777762 4.202952,3.963794s-1.885359,3.963794 -4.202952,3.963794zm58.489361,-1.486423c-2.317592,0 -4.202952,-1.777762 -4.202952,-3.963794s1.885359,-3.963794 4.202952,-3.963794s4.202952,1.777762 4.202952,3.963794s-1.885359,3.963794 -4.202952,3.963794z"/>
 </g>
</svg>