<svg width="210" height="210" xmlns="http://www.w3.org/2000/svg">
 <g>
  <title>background</title>
  <rect x="-1" y="-1" width="212" height="212" id="canvas_background" fill="none"/>
 </g>

 <g>
  <title>Layer 1</title>
  <g id="Layer_1" display="none">
   <g display="inline" id="svg_1">
    <path stroke="#000000" stroke-miterlimit="10" d="m191.837,36.342817c-0.904,-0.007 -1.642,0.72 -1.648,1.624c-0.004,0.444 0.174,0.871 0.492,1.182l3.603,3.648l-25.437,0c-0.903,0 -1.637,0.732 -1.637,1.635l0,27.808l-24.534,0c-0.903,0 -1.638,0.733 -1.638,1.636l0,24.536l-24.536,0c-0.903,0 -1.635,0.732 -1.635,1.635l0,21.265l-13.087,0c-0.904,-0.013 -1.646,0.71 -1.659,1.613c-0.013,0.903 0.709,1.646 1.612,1.659c0.016,0 0.031,0 0.046,0l14.722,0c0.904,0 1.636,-0.733 1.636,-1.637l0,-21.264l24.538,0c0.901,0 1.635,-0.732 1.635,-1.636l0,-24.536l24.536,0c0.902,0 1.636,-0.732 1.636,-1.635l0,-27.808l23.98,0l-3.782,3.827c-0.646,0.632 -0.659,1.667 -0.027,2.314c0.631,0.646 1.667,0.658 2.313,0.027c0.014,-0.013 0.026,-0.027 0.039,-0.041l6.447,-6.523c0.63,-0.637 0.63,-1.663 0,-2.3l-6.447,-6.524c-0.304,-0.319 -0.726,-0.502 -1.168,-0.505l0,0zm-11.609,19.539c-0.904,0 -1.637,0.733 -1.637,1.636l0,112.867l-6.543,0l0,-86.695c0,-0.904 -0.732,-1.636 -1.636,-1.636l-16.357,0c-0.903,0 -1.637,0.732 -1.637,1.636l0,86.695l-6.542,0l0,-60.523c0,-0.902 -0.731,-1.636 -1.636,-1.636l-16.357,0c-0.904,0 -1.637,0.733 -1.637,1.636l0,60.523l-6.543,0l0,-37.622c0,-0.903 -0.732,-1.636 -1.636,-1.636l-16.357,0c-0.903,0 -1.636,0.732 -1.636,1.636l0,37.622l-40.875,0c-0.903,-0.012 -1.646,0.71 -1.658,1.612c-0.013,0.903 0.709,1.646 1.612,1.659c0.015,0.002 0.031,0.002 0.046,0l143.948,0c0.902,0.012 1.647,-0.709 1.659,-1.612c0.013,-0.903 -0.709,-1.646 -1.612,-1.659c-0.015,0 -0.032,0 -0.047,0l-4.927,0l0,-112.867c0,-0.904 -0.731,-1.636 -1.636,-1.636l-16.356,0l0,0zm1.634,3.272l13.085,0l0,111.231l-13.085,0l0,-111.231l0,0zm-116.765,25.411c-0.324,0.033 -0.653,0.066 -0.977,0.154c-2.196,0.589 -3.644,2.622 -3.624,4.805l-30.332,21.227l-18.696,5.009c-0.873,0.233 -1.392,1.13 -1.158,2.003c0,0.001 0,0.003 0.001,0.004l0.831,3.104l-4.735,1.272c-0.874,0.233 -1.391,1.131 -1.157,2.003c0,0.001 0,0.001 0,0.004l1.719,6.415c0.233,0.872 1.13,1.392 2.003,1.157c0.001,0 0.003,-0.001 0.003,-0.001l4.734,-1.271l0.837,3.112c0.231,0.873 1.126,1.395 2,1.164c0.002,0 0.005,-0.001 0.007,-0.002l4.741,-1.271l10.16,37.916c0.233,0.87 1.128,1.388 2,1.156l6.326,-1.693c0.871,-0.234 1.388,-1.129 1.157,-2l-10.166,-37.924l4.44,-1.188l6.243,0.542l0.998,3.797c0.629,2.393 2.688,4.133 5.144,4.44l8.281,1.035c1.345,0.235 2.835,-0.115 3.846,-1.233c1.011,-1.116 1.278,-2.883 0.69,-4.684c-0.11,-0.337 -0.351,-0.97 -0.64,-1.744c-0.001,0 -0.004,0 -0.006,0l12.364,1.073c1.075,1.9 3.339,2.933 5.534,2.346c2.598,-0.697 4.166,-3.413 3.469,-6.013l-11.009,-41.08c-0.609,-2.274 -2.758,-3.754 -5.029,-3.623l0,-0.011l0.001,0zm90.593,0.761l13.086,0l0,85.059l-13.086,0l0,-85.059l0,0zm-90.063,2.505c0.634,0.079 1.161,0.532 1.342,1.208l11.009,41.08c0.242,0.901 -0.254,1.758 -1.156,2c-0.9,0.241 -1.763,-0.253 -2.006,-1.149l0,0l-2.09,-7.796l-7.035,-26.255c0.031,-0.375 -0.068,-0.75 -0.28,-1.061l-1.598,-5.962c-0.002,-0.011 -0.003,-0.021 -0.006,-0.033c-0.229,-0.895 0.26,-1.74 1.156,-1.98c0.226,-0.062 0.453,-0.078 0.665,-0.052l0,0l-0.001,0zm23.661,2.09c-0.48,-0.004 -0.939,0.204 -1.253,0.568l-7.782,8.863c-0.625,0.651 -0.603,1.688 0.049,2.313c0.652,0.625 1.687,0.604 2.313,-0.048c0.032,-0.034 0.063,-0.068 0.092,-0.104l7.79,-8.863c0.603,-0.672 0.546,-1.707 -0.125,-2.31c-0.299,-0.268 -0.684,-0.417 -1.084,-0.419l0,0zm-28.031,3.066l0.844,3.162l-12.69,8.882c-0.767,0.478 -1.002,1.485 -0.525,2.253c0.477,0.767 1.485,1.002 2.253,0.526c0.049,-0.032 0.098,-0.066 0.144,-0.102l11.717,-8.198l8.045,30.044l-34.67,-3.021l-3.643,-13.585l28.525,-19.961l0,0zm34.127,8.85l0,0c-0.146,-0.002 -0.292,0.016 -0.435,0.052l-11.808,3.162c-0.873,0.237 -1.388,1.136 -1.152,2.009c0.237,0.87 1.131,1.386 2.003,1.154l11.808,-3.164c0.875,-0.225 1.402,-1.115 1.177,-1.991c-0.186,-0.726 -0.843,-1.232 -1.593,-1.229l0,0.007zm-49.571,6.012c-0.313,0.018 -0.614,0.124 -0.869,0.308l-2.154,1.509c-0.768,0.476 -1.005,1.484 -0.529,2.252c0.476,0.768 1.484,1.005 2.252,0.53c0.052,-0.033 0.101,-0.068 0.149,-0.105l2.159,-1.508c0.747,-0.51 0.937,-1.528 0.427,-2.273c-0.322,-0.473 -0.865,-0.742 -1.435,-0.713l0,0zm38.932,3.566c-0.902,0.044 -1.598,0.812 -1.553,1.714c0.034,0.684 0.49,1.275 1.145,1.48l11.175,3.789c0.859,0.285 1.784,-0.181 2.068,-1.04c0.281,-0.847 -0.17,-1.764 -1.014,-2.059l-11.176,-3.79c-0.206,-0.073 -0.426,-0.105 -0.645,-0.094l0,0zm44.773,0.081l13.086,0l0,58.889l-13.086,0l0,-58.889zm-90.21,0.902c-0.313,0.017 -0.615,0.124 -0.87,0.307l-2.6,1.822c-0.741,0.518 -0.921,1.537 -0.403,2.277c0.517,0.74 1.535,0.922 2.275,0.406l2.607,-1.827c0.746,-0.511 0.937,-1.529 0.427,-2.274c-0.322,-0.471 -0.866,-0.741 -1.436,-0.711l0,0zm-9.61,1.865l3.387,12.639l-4.735,1.272l-6.319,1.692l-4.749,1.271l-0.805,-3.003c-0.002,-0.011 -0.004,-0.021 -0.006,-0.032l-0.019,-0.082l-1.719,-6.421c-0.005,-0.02 -0.012,-0.039 -0.019,-0.06l-0.818,-3.055l15.802,-4.229l0,0.008zm-17.706,9.77l0.875,3.259l-3.164,0.85l-0.869,-3.259l3.158,-0.85zm32.926,6.531l11.232,0.978c0.008,0.033 0.065,0.168 0.161,0.416c0.116,0.301 0.26,0.68 0.402,1.06c0.284,0.762 0.602,1.662 0.588,1.617c0.341,1.045 0.127,1.328 -0.007,1.476c-0.133,0.148 -0.457,0.27 -0.85,0.199c-0.025,0 -0.051,0 -0.077,0l-8.364,-1.048c-0.881,-0.11 -2.179,-1.249 -2.383,-2.025l-0.703,-2.67l0,-0.003l0.001,0zm-17.303,1.195l9.737,36.344l-3.163,0.844l-9.738,-36.338l3.164,-0.85zm75.73,2.639l13.086,0l0,35.987l-13.086,0l0,-35.987z" id="svg_2"/>
   </g>
   <g display="inline" id="svg_3">
    <path d="m29.875,27.249817c-1.45,0 -2.625,1.175 -2.625,2.625l0,15.75c-0.021,1.45 1.138,2.642 2.588,2.662s2.642,-1.138 2.662,-2.588c0,-0.025 0,-0.049 0,-0.074l0,-13.125l147,0l0,13.125c-0.021,1.45 1.139,2.642 2.588,2.662s2.642,-1.138 2.662,-2.588c0,-0.025 0,-0.049 0,-0.074l0,-15.75c0,-1.45 -1.176,-2.625 -2.625,-2.625l-152.25,0zm15.412,10.5c-1.45,0.074 -2.565,1.309 -2.492,2.758s1.309,2.565 2.758,2.492l0,0l120.894,0c1.449,0.021 2.641,-1.138 2.662,-2.588c0.02,-1.45 -1.139,-2.642 -2.588,-2.662c-0.025,0 -0.05,0 -0.074,0l-120.894,0c-0.089,-0.004 -0.178,-0.004 -0.266,0zm-15.412,15.75c-1.45,0 -2.625,1.175 -2.625,2.625l0,126c0,1.449 1.175,2.625 2.625,2.625l91.875,0c1.449,0.021 2.642,-1.139 2.662,-2.588s-1.139,-2.642 -2.588,-2.662c-0.025,0 -0.049,0 -0.074,0l-89.25,0l0,-120.75l147,0l0,63c-0.021,1.449 1.139,2.642 2.588,2.662s2.642,-1.139 2.662,-2.588c0,-0.025 0,-0.05 0,-0.074l0,-65.625c0,-1.45 -1.176,-2.625 -2.625,-2.625l-152.25,0zm15.75,15.75c-1.45,0 -2.625,1.175 -2.625,2.625l0,15.75c0,1.45 1.175,2.625 2.625,2.625l15.75,0c1.45,0 2.625,-1.175 2.625,-2.625l0,-15.75c0,-1.45 -1.175,-2.625 -2.625,-2.625l-15.75,0zm26.25,0c-1.45,0 -2.625,1.175 -2.625,2.625l0,15.75c0,1.45 1.175,2.625 2.625,2.625l15.75,0c1.45,0 2.625,-1.175 2.625,-2.625l0,-15.75c0,-1.45 -1.175,-2.625 -2.625,-2.625l-15.75,0zm26.25,0c-1.45,0 -2.625,1.175 -2.625,2.625l0,15.75c0,1.45 1.175,2.625 2.625,2.625l15.75,0c1.449,0 2.625,-1.175 2.625,-2.625l0,-15.75c0,-1.45 -1.176,-2.625 -2.625,-2.625l-15.75,0zm26.25,0c-1.449,0 -2.625,1.175 -2.625,2.625l0,15.75c0,1.45 1.176,2.625 2.625,2.625l15.75,0c1.449,0 2.625,-1.175 2.625,-2.625l0,-15.75c0,-1.45 -1.176,-2.625 -2.625,-2.625l-15.75,0zm26.25,0c-1.449,0 -2.625,1.175 -2.625,2.625l0,15.75c0,1.45 1.176,2.625 2.625,2.625l15.75,0c1.449,0 2.625,-1.175 2.625,-2.625l0,-15.75c0,-1.45 -1.176,-2.625 -2.625,-2.625l-15.75,0zm-102.375,5.25l10.5,0l0,10.5l-10.5,0l0,-10.5zm26.25,0l10.5,0l0,10.5l-10.5,0l0,-10.5zm26.25,0l10.5,0l0,10.5l-10.5,0l0,-10.5zm26.25,0l10.5,0l0,10.5l-10.5,0l0,-10.5zm26.25,0l10.5,0l0,10.5l-10.5,0l0,-10.5zm-107.625,21c-1.45,0 -2.625,1.175 -2.625,2.625l0,15.75c0,1.449 1.175,2.625 2.625,2.625l15.75,0c1.45,0 2.625,-1.176 2.625,-2.625l0,-15.75c0,-1.45 -1.175,-2.625 -2.625,-2.625l-15.75,0zm26.25,0c-1.45,0 -2.625,1.175 -2.625,2.625l0,15.75c0,1.449 1.175,2.625 2.625,2.625l15.75,0c1.45,0 2.625,-1.176 2.625,-2.625l0,-15.75c0,-1.45 -1.175,-2.625 -2.625,-2.625l-15.75,0zm26.25,0c-1.45,0 -2.625,1.175 -2.625,2.625l0,15.75c0,1.449 1.175,2.625 2.625,2.625l15.75,0c1.449,0 2.625,-1.176 2.625,-2.625l0,-15.75c0,-1.45 -1.176,-2.625 -2.625,-2.625l-15.75,0zm26.25,0c-1.449,0 -2.625,1.175 -2.625,2.625l0,15.75c0,1.449 1.176,2.625 2.625,2.625l6.02,0c1.449,0.021 2.641,-1.139 2.662,-2.588c0.02,-1.45 -1.139,-2.642 -2.588,-2.662c-0.025,-0.001 -0.05,-0.001 -0.074,0l-3.395,0l0,-10.5l10.5,0l0,9.238c-0.021,1.45 1.139,2.642 2.588,2.662s2.642,-1.138 2.662,-2.588c0,-0.024 0,-0.049 0,-0.074l0,-11.863c0,-1.45 -1.176,-2.625 -2.625,-2.625l-15.75,0zm26.25,0c-1.449,0 -2.625,1.175 -2.625,2.625l0,10.5c-0.021,1.449 1.139,2.642 2.588,2.662s2.642,-1.139 2.662,-2.588c0,-0.025 0,-0.05 0,-0.074l0,-7.875l10.5,0l0,10.972c-0.021,1.449 1.139,2.642 2.588,2.662s2.642,-1.139 2.662,-2.588c0,-0.025 0,-0.05 0,-0.074l0,-13.597c0,-1.45 -1.176,-2.625 -2.625,-2.625l-15.75,0zm-102.375,5.25l10.5,0l0,10.5l-10.5,0l0,-10.5zm26.25,0l10.5,0l0,10.5l-10.5,0l0,-10.5zm26.25,0l10.5,0l0,10.5l-10.5,0l0,-10.5zm49.875,15.75c-18.815,0 -34.125,15.31 -34.125,34.125c0,18.816 15.31,34.125 34.125,34.125s34.125,-15.309 34.125,-34.125c0,-18.815 -15.31,-34.125 -34.125,-34.125zm-105,5.25c-1.45,0 -2.625,1.175 -2.625,2.625l0,15.75c0,1.449 1.175,2.625 2.625,2.625l15.75,0c1.45,0 2.625,-1.176 2.625,-2.625l0,-15.75c0,-1.45 -1.175,-2.625 -2.625,-2.625l-15.75,0zm26.25,0c-1.45,0 -2.625,1.175 -2.625,2.625l0,15.75c0,1.449 1.175,2.625 2.625,2.625l15.75,0c1.45,0 2.625,-1.176 2.625,-2.625l0,-15.75c0,-1.45 -1.175,-2.625 -2.625,-2.625l-15.75,0zm26.25,0c-1.45,0 -2.625,1.175 -2.625,2.625l0,15.75c0,1.449 1.175,2.625 2.625,2.625l11.895,0c1.449,0.021 2.642,-1.139 2.662,-2.588s-1.139,-2.642 -2.588,-2.662c-0.025,0 -0.049,0 -0.074,0l-9.27,0l0,-10.5l10.5,0l0,3.302c-0.021,1.45 1.139,2.642 2.588,2.662s2.642,-1.138 2.662,-2.588c0,-0.024 0,-0.05 0,-0.074l0,-5.927c0,-1.45 -1.176,-2.625 -2.625,-2.625l-15.75,0zm52.5,0c15.979,0 28.875,12.896 28.875,28.875s-12.896,28.875 -28.875,28.875s-28.875,-12.896 -28.875,-28.875s12.896,-28.875 28.875,-28.875zm-102.375,5.25l10.5,0l0,10.5l-10.5,0l0,-10.5zm26.25,0l10.5,0l0,10.5l-10.5,0l0,-10.5zm91.885,12.038c-0.59,-0.004 -1.164,0.19 -1.63,0.554l-21.481,16.334l-6.286,-8.326c-0.806,-1.205 -2.437,-1.529 -3.642,-0.724s-1.529,2.436 -0.725,3.642c0.057,0.084 0.117,0.164 0.183,0.24l7.875,10.429c0.876,1.155 2.522,1.381 3.679,0.505c0,-0.001 0.002,-0.002 0.002,-0.002l23.574,-17.914c1.166,-0.861 1.414,-2.505 0.553,-3.672c-0.493,-0.667 -1.272,-1.063 -2.102,-1.066zm-120.76,8.962c-1.45,0 -2.625,1.176 -2.625,2.625l0,15.75c0,1.449 1.175,2.625 2.625,2.625l15.75,0c1.45,0 2.625,-1.176 2.625,-2.625l0,-15.75c0,-1.449 -1.175,-2.625 -2.625,-2.625l-15.75,0zm26.25,0c-1.45,0 -2.625,1.176 -2.625,2.625l0,15.75c0,1.449 1.175,2.625 2.625,2.625l15.75,0c1.45,0 2.625,-1.176 2.625,-2.625l0,-15.75c0,-1.449 -1.175,-2.625 -2.625,-2.625l-15.75,0zm26.25,0c-1.45,0 -2.625,1.176 -2.625,2.625l0,15.75c0,1.449 1.175,2.625 2.625,2.625l13.586,0c1.45,0.021 2.643,-1.139 2.662,-2.588c0.021,-1.449 -1.138,-2.642 -2.588,-2.662c-0.024,0 -0.049,0 -0.074,0l-10.961,0l0,-10.5l7.875,0c1.449,0.021 2.642,-1.139 2.662,-2.588s-1.139,-2.642 -2.588,-2.662c-0.025,0 -0.049,0 -0.074,0l-10.5,0zm-49.875,5.25l10.5,0l0,10.5l-10.5,0l0,-10.5zm26.25,0l10.5,0l0,10.5l-10.5,0l0,-10.5z" id="svg_4"/>
   </g>
  </g>
  <g id="Layer_2">
   <g id="svg_5">
    <path fill="#000111" d="m29.875,27.249817c-1.45,0 -2.625,1.175 -2.625,2.625l0,15.75c-0.021,1.45 1.138,2.642 2.588,2.662s2.642,-1.138 2.662,-2.588c0,-0.025 0,-0.049 0,-0.074l0,-13.125l147,0l0,13.125c-0.021,1.45 1.139,2.642 2.588,2.662s2.642,-1.138 2.662,-2.588c0,-0.025 0,-0.049 0,-0.074l0,-15.75c0,-1.45 -1.176,-2.625 -2.625,-2.625l-152.25,0zm15.412,10.5c-1.45,0.074 -2.565,1.309 -2.492,2.758s1.309,2.565 2.758,2.492l0,0l120.894,0c1.449,0.021 2.641,-1.138 2.662,-2.588c0.02,-1.45 -1.139,-2.642 -2.588,-2.662c-0.025,0 -0.05,0 -0.074,0l-120.894,0c-0.089,-0.004 -0.178,-0.004 -0.266,0zm-15.412,15.75c-1.45,0 -2.625,1.175 -2.625,2.625l0,126c0,1.449 1.175,2.625 2.625,2.625l91.875,0c1.449,0.021 2.642,-1.139 2.662,-2.588s-1.139,-2.642 -2.588,-2.662c-0.025,0 -0.049,0 -0.074,0l-89.25,0l0,-120.75l147,0l0,63c-0.021,1.449 1.139,2.642 2.588,2.662s2.642,-1.139 2.662,-2.588c0,-0.025 0,-0.05 0,-0.074l0,-65.625c0,-1.45 -1.176,-2.625 -2.625,-2.625l-152.25,0zm15.75,15.75c-1.45,0 -2.625,1.175 -2.625,2.625l0,15.75c0,1.45 1.175,2.625 2.625,2.625l15.75,0c1.45,0 2.625,-1.175 2.625,-2.625l0,-15.75c0,-1.45 -1.175,-2.625 -2.625,-2.625l-15.75,0zm26.25,0c-1.45,0 -2.625,1.175 -2.625,2.625l0,15.75c0,1.45 1.175,2.625 2.625,2.625l15.75,0c1.45,0 2.625,-1.175 2.625,-2.625l0,-15.75c0,-1.45 -1.175,-2.625 -2.625,-2.625l-15.75,0zm26.25,0c-1.45,0 -2.625,1.175 -2.625,2.625l0,15.75c0,1.45 1.175,2.625 2.625,2.625l15.75,0c1.449,0 2.625,-1.175 2.625,-2.625l0,-15.75c0,-1.45 -1.176,-2.625 -2.625,-2.625l-15.75,0zm26.25,0c-1.449,0 -2.625,1.175 -2.625,2.625l0,15.75c0,1.45 1.176,2.625 2.625,2.625l15.75,0c1.449,0 2.625,-1.175 2.625,-2.625l0,-15.75c0,-1.45 -1.176,-2.625 -2.625,-2.625l-15.75,0zm26.25,0c-1.449,0 -2.625,1.175 -2.625,2.625l0,15.75c0,1.45 1.176,2.625 2.625,2.625l15.75,0c1.449,0 2.625,-1.175 2.625,-2.625l0,-15.75c0,-1.45 -1.176,-2.625 -2.625,-2.625l-15.75,0zm-102.375,5.25l10.5,0l0,10.5l-10.5,0l0,-10.5zm26.25,0l10.5,0l0,10.5l-10.5,0l0,-10.5zm26.25,0l10.5,0l0,10.5l-10.5,0l0,-10.5zm26.25,0l10.5,0l0,10.5l-10.5,0l0,-10.5zm26.25,0l10.5,0l0,10.5l-10.5,0l0,-10.5zm-107.625,21c-1.45,0 -2.625,1.175 -2.625,2.625l0,15.75c0,1.449 1.175,2.625 2.625,2.625l15.75,0c1.45,0 2.625,-1.176 2.625,-2.625l0,-15.75c0,-1.45 -1.175,-2.625 -2.625,-2.625l-15.75,0zm26.25,0c-1.45,0 -2.625,1.175 -2.625,2.625l0,15.75c0,1.449 1.175,2.625 2.625,2.625l15.75,0c1.45,0 2.625,-1.176 2.625,-2.625l0,-15.75c0,-1.45 -1.175,-2.625 -2.625,-2.625l-15.75,0zm26.25,0c-1.45,0 -2.625,1.175 -2.625,2.625l0,15.75c0,1.449 1.175,2.625 2.625,2.625l15.75,0c1.449,0 2.625,-1.176 2.625,-2.625l0,-15.75c0,-1.45 -1.176,-2.625 -2.625,-2.625l-15.75,0zm26.25,0c-1.449,0 -2.625,1.175 -2.625,2.625l0,15.75c0,1.449 1.176,2.625 2.625,2.625l6.02,0c1.449,0.021 2.641,-1.139 2.662,-2.588c0.02,-1.45 -1.139,-2.642 -2.588,-2.662c-0.025,-0.001 -0.05,-0.001 -0.074,0l-3.395,0l0,-10.5l10.5,0l0,9.238c-0.021,1.45 1.139,2.642 2.588,2.662s2.642,-1.138 2.662,-2.588c0,-0.024 0,-0.049 0,-0.074l0,-11.863c0,-1.45 -1.176,-2.625 -2.625,-2.625l-15.75,0zm26.25,0c-1.449,0 -2.625,1.175 -2.625,2.625l0,10.5c-0.021,1.449 1.139,2.642 2.588,2.662s2.642,-1.139 2.662,-2.588c0,-0.025 0,-0.05 0,-0.074l0,-7.875l10.5,0l0,10.972c-0.021,1.449 1.139,2.642 2.588,2.662s2.642,-1.139 2.662,-2.588c0,-0.025 0,-0.05 0,-0.074l0,-13.597c0,-1.45 -1.176,-2.625 -2.625,-2.625l-15.75,0zm-102.375,5.25l10.5,0l0,10.5l-10.5,0l0,-10.5zm26.25,0l10.5,0l0,10.5l-10.5,0l0,-10.5zm26.25,0l10.5,0l0,10.5l-10.5,0l0,-10.5zm49.875,15.75c-18.815,0 -34.125,15.31 -34.125,34.125c0,18.816 15.31,34.125 34.125,34.125s34.125,-15.309 34.125,-34.125c0,-18.815 -15.31,-34.125 -34.125,-34.125zm-105,5.25c-1.45,0 -2.625,1.175 -2.625,2.625l0,15.75c0,1.449 1.175,2.625 2.625,2.625l15.75,0c1.45,0 2.625,-1.176 2.625,-2.625l0,-15.75c0,-1.45 -1.175,-2.625 -2.625,-2.625l-15.75,0zm26.25,0c-1.45,0 -2.625,1.175 -2.625,2.625l0,15.75c0,1.449 1.175,2.625 2.625,2.625l15.75,0c1.45,0 2.625,-1.176 2.625,-2.625l0,-15.75c0,-1.45 -1.175,-2.625 -2.625,-2.625l-15.75,0zm26.25,0c-1.45,0 -2.625,1.175 -2.625,2.625l0,15.75c0,1.449 1.175,2.625 2.625,2.625l11.895,0c1.449,0.021 2.642,-1.139 2.662,-2.588s-1.139,-2.642 -2.588,-2.662c-0.025,0 -0.049,0 -0.074,0l-9.27,0l0,-10.5l10.5,0l0,3.302c-0.021,1.45 1.139,2.642 2.588,2.662s2.642,-1.138 2.662,-2.588c0,-0.024 0,-0.05 0,-0.074l0,-5.927c0,-1.45 -1.176,-2.625 -2.625,-2.625l-15.75,0zm52.5,0c15.979,0 28.875,12.896 28.875,28.875s-12.896,28.875 -28.875,28.875s-28.875,-12.896 -28.875,-28.875s12.896,-28.875 28.875,-28.875zm-102.375,5.25l10.5,0l0,10.5l-10.5,0l0,-10.5zm26.25,0l10.5,0l0,10.5l-10.5,0l0,-10.5zm91.885,12.038c-0.59,-0.004 -1.164,0.19 -1.63,0.554l-21.481,16.334l-6.286,-8.326c-0.806,-1.205 -2.437,-1.529 -3.642,-0.724s-1.529,2.436 -0.725,3.642c0.057,0.084 0.117,0.164 0.183,0.24l7.875,10.429c0.876,1.155 2.522,1.381 3.679,0.505c0,-0.001 0.002,-0.002 0.002,-0.002l23.574,-17.914c1.166,-0.861 1.414,-2.505 0.553,-3.672c-0.493,-0.667 -1.272,-1.063 -2.102,-1.066zm-120.76,8.962c-1.45,0 -2.625,1.176 -2.625,2.625l0,15.75c0,1.449 1.175,2.625 2.625,2.625l15.75,0c1.45,0 2.625,-1.176 2.625,-2.625l0,-15.75c0,-1.449 -1.175,-2.625 -2.625,-2.625l-15.75,0zm26.25,0c-1.45,0 -2.625,1.176 -2.625,2.625l0,15.75c0,1.449 1.175,2.625 2.625,2.625l15.75,0c1.45,0 2.625,-1.176 2.625,-2.625l0,-15.75c0,-1.449 -1.175,-2.625 -2.625,-2.625l-15.75,0zm26.25,0c-1.45,0 -2.625,1.176 -2.625,2.625l0,15.75c0,1.449 1.175,2.625 2.625,2.625l13.586,0c1.45,0.021 2.643,-1.139 2.662,-2.588c0.021,-1.449 -1.138,-2.642 -2.588,-2.662c-0.024,0 -0.049,0 -0.074,0l-10.961,0l0,-10.5l7.875,0c1.449,0.021 2.642,-1.139 2.662,-2.588s-1.139,-2.642 -2.588,-2.662c-0.025,0 -0.049,0 -0.074,0l-10.5,0zm-49.875,5.25l10.5,0l0,10.5l-10.5,0l0,-10.5zm26.25,0l10.5,0l0,10.5l-10.5,0l0,-10.5z" id="svg_6"/>
   </g>
  </g>
 </g>
</svg>