<svg width="210" height="210" xmlns="http://www.w3.org/2000/svg">
 <g>
  <title>background</title>
  <rect x="-1" y="-1" width="212" height="212" id="canvas_background" fill="none"/>
 </g>

 <g>
  <title>Layer 1</title>
  <g id="svg_1">
   <path fill="#000111" d="m187,76.869c0,-12.25 -4.9,-23.45 -13.3,-32.2c-17.5,-17.5 -45.15,-17.85 -63,-1.05c0,0 -0.351,0 -0.351,0.35l-6.3,6.3l-7.7,-7.35c-17.85,-17.85 -46.55,-17.85 -64.4,0c-8.4,8.05 -12.95,19.6 -12.95,31.85s4.9,23.45 13.3,32.2l4.9,4.9c-2.45,2.449 -3.85,5.949 -3.85,9.449c0,3.851 1.4,7.351 4.2,9.8c2.8,2.801 6.3,4.2 9.8,4.2l0,0c0.35,0 0.7,0 0.7,0c-0.35,3.851 1.05,7.7 4.2,10.851c2.8,2.8 6.3,4.199 9.8,4.199l0,0c0.35,0 0.7,0 0.7,0c0,0.351 0,0.7 0,1.051c0,3.85 1.4,7.35 4.2,9.8c2.8,2.8 6.3,4.2 9.8,4.2c0.35,0 0.7,0 0.7,0c-0.35,3.85 1.05,7.699 4.2,10.85c2.8,2.8 6.3,4.2 9.8,4.2c3.85,0 7,-1.4 9.8,-3.851l12.6,-12.6c0.7,-0.7 1.4,-1.4 1.75,-2.1c2.801,2.449 5.95,3.85 9.45,3.85s7,-1.4 9.8,-4.2c2.801,-2.8 4.2,-6.3 4.2,-9.8c0,-0.35 0,-0.7 0,-1.05c0.351,0 0.7,0 1.05,0c3.851,0 7.351,-1.4 9.801,-4.2c2.8,-2.8 4.199,-6.3 4.199,-9.8c0,-0.351 0,-0.7 0,-1.05c0.351,0 0.7,0 1.051,0c3.5,0 7,-1.4 9.8,-4.2s4.2,-6.3 4.2,-9.8c0,-2.101 -0.7,-4.2 -1.4,-6.3l5.95,-5.95c8.75,-9.099 13.3,-20.299 13.3,-32.549zm-139.65,51.449l0,0c-1.75,0 -3.5,-0.7 -4.9,-2.1c-1.4,-1.4 -2.1,-3.15 -2.1,-4.9s0.7,-3.5 2.1,-4.899l12.6,-12.6c1.4,-1.4 2.8,-2.1 4.9,-2.1c1.75,0 3.5,0.7 4.9,2.1c2.8,2.8 2.8,7 0,9.8l-12.6,12.6c-1.4,1.399 -3.15,2.099 -4.9,2.099zm15.05,14.701c-1.75,0 -3.5,-0.7 -4.9,-2.1c-2.8,-2.801 -2.8,-7 0,-9.801l12.6,-12.6c1.4,-1.399 2.8,-2.1 4.9,-2.1c1.75,0 3.5,0.7 4.9,2.1c1.4,1.4 2.1,3.15 2.1,4.9s-0.7,3.5 -2.1,4.899l-12.6,12.601c-1.4,1.4 -3.15,2.101 -4.9,2.101zm14.7,15.049c-1.75,0 -3.5,-0.7 -4.9,-2.1c-1.4,-1.4 -2.1,-3.15 -2.1,-4.9s0.7,-3.5 2.1,-4.899l12.6,-12.601c1.4,-1.399 2.8,-2.1 4.9,-2.1c1.75,0 3.5,0.7 4.9,2.1c2.8,2.8 2.8,7 0,9.8l-12.6,12.601c-1.4,1.399 -3.15,2.099 -4.9,2.099zm19.6,12.951c-2.45,2.45 -7,2.45 -9.8,0c-2.8,-2.8 -2.8,-7 0,-9.8l12.6,-12.601c1.4,-1.399 2.8,-2.1 4.9,-2.1c1.75,0 3.5,0.7 4.899,2.1c1.4,1.4 2.101,3.15 2.101,4.9s-0.7,3.5 -2.101,4.9l-12.599,12.601zm63.7,-44.8c-2.801,2.8 -7.351,2.8 -9.801,0l-25.899,-25.9c-1.4,-1.4 -3.5,-1.4 -4.9,0c-1.399,1.4 -1.399,3.5 0,4.9l25.9,25.899c1.399,1.4 2.1,3.15 2.1,4.9s-0.7,3.5 -2.1,4.9c-2.8,2.8 -7.351,2.8 -9.8,0l-28.7,-28.7c-1.4,-1.4 -3.5,-1.4 -4.9,0c-1.4,1.4 -1.4,3.5 0,4.9l28.7,28.699c1.4,1.4 2.1,3.15 2.1,4.9s-0.699,3.5 -2.1,4.899c-2.8,2.801 -7,2.801 -9.8,0l-2.45,-2.449l0,0c0,-3.851 -1.4,-7.351 -4.2,-9.801c-2.8,-2.8 -6.3,-4.199 -9.8,-4.199c-0.35,0 -0.7,0 -0.7,0c0.351,-3.851 -1.05,-7.7 -4.2,-10.851c-2.8,-2.8 -6.3,-4.199 -9.8,-4.199c-0.35,0 -0.7,0 -0.7,0c0,-0.351 0,-0.7 0,-1.051c0,-3.85 -1.4,-7.35 -4.2,-9.8c-2.8,-2.8 -6.3,-4.2 -9.8,-4.2c-0.35,0 -0.7,0 -0.7,0c0.35,-3.849 -1.05,-7.699 -4.2,-10.849c-2.8,-2.8 -6.3,-4.2 -9.8,-4.2c-3.85,0 -7,1.4 -9.8,3.85l-8.05,8.05l-4.9,-4.9c-8.05,-6.3 -11.9,-16.1 -11.9,-26.25s3.85,-19.95 11.2,-27.3c15.05,-15.05 39.55,-15.05 54.6,0l7.7,7.35l-18.55,18.55c-3.15,3.15 -5.25,7.7 -5.25,12.25c0,4.55 1.75,9.1 5.25,12.25c3.5,3.5 8.05,5.25 12.25,5.25c4.2,0 9.1,-1.75 12.25,-5.25l18.55,-18.548l36.4,36.4c1.399,1.4 2.1,3.15 2.1,4.9s-0.7,4.199 -2.1,5.6zm3.15,-16.8l-37.1,-37.1c-1.05,-1.05 -2.45,-1.4 -3.851,-0.7c-0.35,0 -0.699,0.35 -1.05,0.7l-21,21c-4.2,4.2 -10.85,4.2 -14.7,0c-2.1,-2.1 -3.15,-4.55 -3.15,-7.35c0,-2.8 1.05,-5.6 3.15,-7.35l28.7,-28.7l0,0c14.7,-15.4 39.2,-15.4 54.25,-0.35c7.351,7.35 11.2,16.8 11.2,27.3c0,10.15 -3.85,19.95 -11.2,27.3l-5.249,5.25z" id="svg_2"/>
  </g>
 </g>
</svg>