<svg xmlns="http://www.w3.org/2000/svg" width="210px" height="210px"  xmlns:xlink="http://www.w3.org/1999/xlink" viewBox="-1 -1 212 212"><rect id="svgEditorBackground" x="-1" y="-1" width="212" height="212" style="fill: none; stroke: none;"/>
 <g>
  <title>background</title>
  <rect x="-1" y="-1" width="212" height="212" id="canvas_background" fill="none"/>
 </g>

 <g>
  <title>Layer 1</title>
  <g id="svg_1">
   <path fill="#F5AB37" d="M187,76.869c0,-12.25,-4.900000000000006,-23.450000000000003,-13.300000000000011,-32.2c-17.5,-17.5,-45.150000000000006,-17.85,-63,-1.0499999999999972c0,0,-0.3509999999999991,0,-0.3509999999999991,0.3500000000000014l-6.299999999999997,6.299999999999997l-7.700000000000003,-7.350000000000001c-17.849999999999994,-17.85,-46.55,-17.85,-64.4,0c-8.399999999999999,8.049999999999997,-12.95,19.6,-12.95,31.85000000000001s4.900000000000002,23.450000000000003,13.3,32.2l4.899999999999999,4.900000000000006c-2.450000000000003,2.448999999999998,-3.8500000000000014,5.948999999999998,-3.8500000000000014,9.448999999999998c0,3.850999999999999,1.3999999999999986,7.350999999999999,4.200000000000003,9.800000000000011c2.799999999999997,2.8009999999999877,6.299999999999997,4.199999999999989,9.800000000000004,4.199999999999989l0,0c0.3500000000000014,0,0.7000000000000028,0,0.7000000000000028,0c-0.3500000000000014,3.850999999999999,1.0499999999999972,7.699999999999989,4.200000000000003,10.850999999999999c2.799999999999997,2.8000000000000114,6.299999999999997,4.199000000000012,9.799999999999997,4.199000000000012l0,0c0.3500000000000014,0,0.7000000000000028,0,0.7000000000000028,0c0,0.3509999999999991,0,0.6999999999999886,0,1.0509999999999877c0,3.8499999999999943,1.4000000000000057,7.349999999999994,4.200000000000003,9.800000000000011c2.799999999999997,2.8000000000000114,6.299999999999997,4.199999999999989,9.799999999999997,4.199999999999989c0.3499999999999943,0,0.7000000000000028,0,0.7000000000000028,0c-0.3499999999999943,3.8499999999999943,1.0499999999999972,7.699000000000012,4.200000000000003,10.849999999999994c2.799999999999997,2.8000000000000114,6.299999999999997,4.199999999999989,9.799999999999997,4.199999999999989c3.8499999999999943,0,7,-1.4000000000000057,9.799999999999997,-3.850999999999999l12.599999999999994,-12.599999999999994c0.7000000000000028,-0.6999999999999886,1.4000000000000057,-1.4000000000000057,1.75,-2.0999999999999943c2.801000000000002,2.4490000000000123,5.950000000000003,3.8499999999999943,9.450000000000003,3.8499999999999943s6.999999999999986,-1.4000000000000057,9.799999999999997,-4.199999999999989c2.8009999999999877,-2.8000000000000114,4.199999999999989,-6.300000000000011,4.199999999999989,-9.800000000000011c0,-0.3499999999999943,0,-0.6999999999999886,0,-1.0500000000000114c0.3509999999999991,0,0.6999999999999886,0,1.0500000000000114,0c3.850999999999999,0,7.350999999999999,-1.4000000000000057,9.800999999999988,-4.199999999999989c2.8000000000000114,-2.8000000000000114,4.199000000000012,-6.300000000000011,4.199000000000012,-9.800000000000011c0,-0.3509999999999991,0,-0.6999999999999886,0,-1.0500000000000114c0.3509999999999991,0,0.6999999999999886,0,1.0509999999999877,0c3.5,0,7,-1.4000000000000057,9.800000000000011,-4.199999999999989s4.199999999999989,-6.299999999999997,4.199999999999989,-9.799999999999997c0,-2.100999999999999,-0.6999999999999886,-4.200000000000003,-1.4000000000000057,-6.299999999999997l5.949999999999989,-5.950000000000003c8.75,-9.099000000000004,13.300000000000011,-20.298999999999992,13.300000000000011,-32.54899999999999ZM47.349999999999994,128.31799999999998l0,0c-1.75,0,-3.5,-0.7000000000000028,-4.899999999999999,-2.0999999999999943c-1.3999999999999986,-1.4000000000000057,-2.1000000000000014,-3.1500000000000057,-2.1000000000000014,-4.900000000000006s0.7000000000000028,-3.5,2.1000000000000014,-4.899000000000001l12.600000000000001,-12.599999999999994c1.3999999999999986,-1.4000000000000057,2.799999999999997,-2.0999999999999943,4.899999999999999,-2.0999999999999943c1.75,0,3.5,0.7000000000000028,4.899999999999999,2.0999999999999943c2.799999999999997,2.799999999999997,2.799999999999997,7,0,9.799999999999997l-12.600000000000001,12.599999999999994c-1.3999999999999986,1.399000000000001,-3.1499999999999986,2.0990000000000038,-4.899999999999999,2.0990000000000038ZM62.39999999999999,143.01899999999998c-1.75,0,-3.5,-0.6999999999999886,-4.899999999999999,-2.0999999999999943c-2.799999999999997,-2.8009999999999877,-2.799999999999997,-7,0,-9.800999999999988l12.600000000000001,-12.599999999999994c1.4000000000000057,-1.399000000000001,2.799999999999997,-2.0999999999999943,4.900000000000006,-2.0999999999999943c1.75,0,3.5,0.7000000000000028,4.900000000000006,2.0999999999999943c1.4000000000000057,1.4000000000000057,2.0999999999999943,3.1500000000000057,2.0999999999999943,4.900000000000006s-0.7000000000000028,3.5,-2.0999999999999943,4.899000000000001l-12.599999999999994,12.600999999999999c-1.4000000000000057,1.4000000000000057,-3.1500000000000057,2.100999999999999,-4.899999999999999,2.100999999999999ZM77.1,158.06799999999998c-1.75,0,-3.5,-0.6999999999999886,-4.900000000000006,-2.0999999999999943c-1.4000000000000057,-1.4000000000000057,-2.0999999999999943,-3.1500000000000057,-2.0999999999999943,-4.900000000000006s0.7000000000000028,-3.5,2.0999999999999943,-4.899000000000001l12.599999999999994,-12.600999999999999c1.4000000000000057,-1.399000000000001,2.799999999999997,-2.0999999999999943,4.900000000000006,-2.0999999999999943c1.75,0,3.5,0.6999999999999886,4.900000000000006,2.0999999999999943c2.799999999999997,2.8000000000000114,2.799999999999997,7,0,9.800000000000011l-12.599999999999994,12.600999999999999c-1.4000000000000057,1.399000000000001,-3.1500000000000057,2.0989999999999895,-4.900000000000006,2.0989999999999895ZM96.69999999999999,171.01899999999998c-2.450000000000003,2.4499999999999886,-7,2.4499999999999886,-9.799999999999997,0c-2.799999999999997,-2.8000000000000114,-2.799999999999997,-7,0,-9.800000000000011l12.599999999999994,-12.600999999999999c1.4000000000000057,-1.399000000000001,2.799999999999997,-2.0999999999999943,4.900000000000006,-2.0999999999999943c1.75,0,3.5,0.6999999999999886,4.899000000000001,2.0999999999999943c1.4000000000000057,1.4000000000000057,2.100999999999999,3.1500000000000057,2.100999999999999,4.900000000000006s-0.7000000000000028,3.5,-2.100999999999999,4.900000000000006l-12.599000000000004,12.600999999999999ZM160.39999999999998,126.21899999999998c-2.8009999999999877,2.799999999999997,-7.350999999999999,2.799999999999997,-9.800999999999988,0l-25.899,-25.89999999999999c-1.4000000000000057,-1.4000000000000057,-3.5,-1.4000000000000057,-4.900000000000006,0c-1.399000000000001,1.4000000000000057,-1.399000000000001,3.5,0,4.900000000000006l25.900000000000006,25.899c1.399000000000001,1.4000000000000057,2.0999999999999943,3.1500000000000057,2.0999999999999943,4.900000000000006s-0.6999999999999886,3.5,-2.0999999999999943,4.900000000000006c-2.8000000000000114,2.8000000000000114,-7.350999999999999,2.8000000000000114,-9.800000000000011,0l-28.700000000000003,-28.700000000000003c-1.4000000000000057,-1.4000000000000057,-3.5,-1.4000000000000057,-4.900000000000006,0c-1.4000000000000057,1.4000000000000057,-1.4000000000000057,3.5,0,4.900000000000006l28.700000000000003,28.698999999999998c1.4000000000000057,1.4000000000000057,2.0999999999999943,3.1500000000000057,2.0999999999999943,4.900000000000006s-0.6990000000000123,3.5,-2.0999999999999943,4.899000000000001c-2.8000000000000114,2.8009999999999877,-7,2.8009999999999877,-9.799999999999997,0l-2.450000000000003,-2.4490000000000123l0,0c0,-3.850999999999999,-1.4000000000000057,-7.350999999999999,-4.200000000000003,-9.800999999999988c-2.799999999999997,-2.8000000000000114,-6.299999999999997,-4.199000000000012,-9.799999999999997,-4.199000000000012c-0.3499999999999943,0,-0.7000000000000028,0,-0.7000000000000028,0c0.3509999999999991,-3.850999999999999,-1.0499999999999972,-7.699999999999989,-4.200000000000003,-10.850999999999999c-2.799999999999997,-2.799999999999997,-6.299999999999997,-4.198999999999998,-9.799999999999997,-4.198999999999998c-0.3499999999999943,0,-0.7000000000000028,0,-0.7000000000000028,0c0,-0.3509999999999991,0,-0.7000000000000028,0,-1.051000000000002c0,-3.8499999999999943,-1.4000000000000057,-7.349999999999994,-4.200000000000003,-9.799999999999997c-2.799999999999997,-2.799999999999997,-6.299999999999997,-4.200000000000003,-9.799999999999997,-4.200000000000003c-0.3499999999999943,0,-0.7000000000000028,0,-0.7000000000000028,0c0.3499999999999943,-3.8490000000000038,-1.0499999999999972,-7.698999999999998,-4.200000000000003,-10.849000000000004c-2.799999999999997,-2.799999999999997,-6.299999999999997,-4.200000000000003,-9.799999999999997,-4.200000000000003c-3.8500000000000014,0,-7,1.4000000000000057,-9.799999999999997,3.8499999999999943l-8.049999999999997,8.049999999999997l-4.899999999999999,-4.900000000000006c-8.05,-6.299999999999997,-11.899999999999999,-16.10000000000001,-11.899999999999999,-26.25s3.8500000000000014,-19.950000000000003,11.200000000000003,-27.299999999999997c15.049999999999997,-15.049999999999997,39.55,-15.049999999999997,54.60000000000001,0l7.700000000000003,7.350000000000001l-18.549999999999997,18.550000000000004c-3.1500000000000057,3.1500000000000057,-5.25,7.700000000000003,-5.25,12.25c0,4.549999999999997,1.75,9.099999999999994,5.25,12.25c3.5,3.5,8.049999999999997,5.25,12.25,5.25c4.200000000000003,0,9.099999999999994,-1.75,12.25,-5.25l18.549999999999997,-18.548000000000002l36.39999999999999,36.400000000000006c1.399000000000001,1.4000000000000057,2.0999999999999943,3.1500000000000057,2.0999999999999943,4.900000000000006s-0.6999999999999886,4.198999999999998,-2.0999999999999943,5.599999999999994ZM163.54999999999998,109.41899999999998l-37.099999999999994,-37.099999999999994c-1.0499999999999972,-1.0499999999999972,-2.450000000000003,-1.4000000000000057,-3.850999999999999,-0.7000000000000028c-0.3499999999999943,0,-0.6989999999999981,0.3499999999999943,-1.0499999999999972,0.7000000000000028l-21,21c-4.200000000000003,4.200000000000003,-10.849999999999994,4.200000000000003,-14.700000000000003,0c-2.0999999999999943,-2.0999999999999943,-3.1500000000000057,-4.549999999999997,-3.1500000000000057,-7.349999999999994c0,-2.799999999999997,1.0499999999999972,-5.599999999999994,3.1500000000000057,-7.349999999999994l28.700000000000003,-28.700000000000003l0,0c14.700000000000003,-15.399999999999999,39.2,-15.399999999999999,54.249999999999986,-0.3500000000000014c7.350999999999999,7.350000000000001,11.199999999999989,16.800000000000004,11.199999999999989,27.300000000000004c0,10.150000000000006,-3.8499999999999943,19.950000000000003,-11.199999999999989,27.299999999999997l-5.248999999999995,5.25Z" id="svg_2"/>
  </g>
 </g>
</svg>