<svg xmlns="http://www.w3.org/2000/svg" xmlns:xlink="http://www.w3.org/1999/xlink" version="1.1" x="0px" y="0px" viewBox="0 -0.011994 64 80.024" style="enable-background:new 0 0 64 64;" xml:space="preserve" width="100%" height="100%" preserveAspectRatio="xMidYMid meet" ><rect id="svgEditorBackground" x="0" y="0" width="64" height="80" style="fill: none; stroke: none;"/><g><path d="M24.485,7.468c1.2729999999999997,1.0180000000000007,2.103999999999999,2.4380000000000006,2.3930000000000007,4.006l-3.5070000000000014,-1.4030000000000005l-0.7429999999999986,1.857000000000001l5.372,2.148999999999999l5.372,-2.1479999999999997l-0.7430000000000021,-1.857000000000001l-3.7109999999999985,1.4840000000000018c-0.29100000000000037,-2.214000000000002,-1.4110000000000014,-4.230000000000002,-3.184000000000001,-5.649000000000002c-1.536999999999999,-1.2299999999999986,-3.4669999999999987,-1.9069999999999991,-5.434999999999999,-1.9069999999999991h-0.2989999999999995v2h0.2989999999999995c1.5150000000000006,0,3.001999999999999,0.5209999999999999,4.186,1.468Z" fill="#F5AB37"/><path d="M39.515,56.532c-1.2730000000000032,-1.0180000000000007,-2.103999999999999,-2.4380000000000024,-2.3930000000000007,-4.006l3.506999999999998,1.4029999999999987l0.7430000000000021,-1.8569999999999993l-5.372,-2.148999999999994l-5.372,2.1480000000000032l0.7429999999999986,1.8569999999999993l3.711000000000002,-1.4840000000000018c0.2909999999999968,2.2139999999999986,1.4110000000000014,4.230000000000004,3.1839999999999975,5.649000000000001c1.536999999999999,1.2299999999999969,3.4669999999999987,1.9069999999999965,5.435000000000002,1.9069999999999965h0.2989999999999995v-2h-0.2989999999999995c-1.5150000000000006,0,-3.0020000000000024,-0.5210000000000008,-4.186,-1.4680000000000035Z" fill="#F5AB37"/><path d="M54,45c-1.4380000000000024,0,-2.7929999999999993,0.347999999999999,-4,0.9500000000000028v-17.757l2.070999999999998,5.1789999999999985l1.8569999999999993,-0.7430000000000021l-1.4840000000000018,-3.7109999999999985c2.2139999999999986,-0.29100000000000037,4.229999999999997,-1.4110000000000014,5.649000000000001,-3.184000000000001c1.230000000000004,-1.536999999999999,1.9070000000000036,-3.4669999999999987,1.9070000000000036,-5.434999999999999v-0.2989999999999995h-2v0.2989999999999995c0,1.5159999999999982,-0.5210000000000008,3.001999999999999,-1.4680000000000035,4.186c-1.0180000000000007,1.2729999999999997,-2.4380000000000024,2.103999999999999,-4.006,2.3930000000000007l1.4029999999999987,-3.5070000000000014l-1.8569999999999993,-0.7429999999999986l-2.0719999999999956,5.1789999999999985v-9.756999999999998c1.2070000000000007,0.6020000000000003,2.5619999999999976,0.9499999999999993,4,0.9499999999999993c4.962000000000003,0,9,-4.038,9,-9s-4.037999999999997,-9,-9,-9s-9,4.038,-9,9c0,3.4830000000000005,1.993000000000002,6.504999999999999,4.896000000000001,8h-35.792c2.9030000000000022,-1.495000000000001,4.896000000000001,-4.5169999999999995,4.896000000000001,-8c0,-4.962,-4.038,-9,-9,-9s-9,4.038,-9,9s4.038,9,9,9c1.4380000000000006,0,2.7929999999999993,-0.347999999999999,4,-0.9499999999999993v17.757l-2.0709999999999997,-5.179000000000002l-1.857000000000001,0.7429999999999986l1.4840000000000018,3.711000000000002c-2.214000000000002,0.2909999999999968,-4.230000000000002,1.4110000000000014,-5.649000000000002,3.1839999999999975c-1.2299999999999986,1.536999999999999,-1.9069999999999991,3.4669999999999987,-1.9069999999999991,5.435000000000002v0.2989999999999995h2v-0.2989999999999995c0,-1.5159999999999982,0.5209999999999999,-3.0020000000000024,1.468,-4.186c1.0180000000000007,-1.2730000000000032,2.4380000000000006,-2.103999999999999,4.006,-2.3930000000000007l-1.4030000000000005,3.506999999999998l1.857000000000001,0.7430000000000021l2.071999999999999,-5.179000000000002v9.756999999999998c-1.2070000000000007,-0.6019999999999968,-2.5619999999999994,-0.9499999999999957,-4,-0.9499999999999957c-4.962,0,-9,4.037999999999997,-9,9s4.038,9,9,9s9,-4.037999999999997,9,-9c0,-3.482999999999997,-1.9929999999999986,-6.505000000000003,-4.896000000000001,-8h35.792c-2.9029999999999987,1.4949999999999974,-4.896000000000001,4.517000000000003,-4.896000000000001,8c0,4.962000000000003,4.037999999999997,9,9,9s9,-4.037999999999997,9,-9s-4.037999999999997,-9,-9,-9ZM51,16.315v-1.3150000000000013c0,-1.654,1.3460000000000036,-3,3,-3s3,1.346,3,3v1.3150000000000013c-0.9110000000000014,0.4349999999999987,-1.9249999999999972,0.6849999999999987,-3,0.6849999999999987s-2.0889999999999986,-0.25,-3,-0.6849999999999987ZM52,8c0,-1.1029999999999998,0.8969999999999985,-2,2,-2s2,0.8970000000000002,2,2s-0.8969999999999985,2,-2,2s-2,-0.8970000000000002,-2,-2ZM47,10c0,-3.8600000000000003,3.1400000000000006,-7,7,-7s7,3.1400000000000006,7,7c0,1.907,-0.7689999999999984,3.6370000000000005,-2.009999999999998,4.901c-0.03399999999999892,-1.681000000000001,-0.8930000000000007,-3.1639999999999997,-2.1970000000000027,-4.045999999999999c0.7430000000000021,-0.7270000000000003,1.2070000000000007,-1.7360000000000007,1.2070000000000007,-2.8550000000000004c0,-2.2059999999999995,-1.793999999999997,-4,-4,-4s-4,1.7940000000000005,-4,4c0,1.1189999999999998,0.46399999999999864,2.128,1.2070000000000007,2.8550000000000004c-1.304000000000002,0.8819999999999997,-2.163000000000004,2.365,-2.1970000000000027,4.045999999999999c-1.2409999999999997,-1.2639999999999993,-2.009999999999998,-2.9939999999999998,-2.009999999999998,-4.901ZM3,10c0,-3.8600000000000003,3.1400000000000006,-7,7,-7s7,3.1400000000000006,7,7c0,1.907,-0.7689999999999984,3.6370000000000005,-2.01,4.901c-0.034000000000000696,-1.681000000000001,-0.8930000000000007,-3.1639999999999997,-2.197000000000001,-4.045999999999999c0.7430000000000003,-0.7270000000000003,1.2070000000000007,-1.7360000000000007,1.2070000000000007,-2.8550000000000004c0,-2.2059999999999995,-1.7940000000000005,-4,-4,-4s-4,1.7940000000000005,-4,4c0,1.1189999999999998,0.4640000000000004,2.128,1.2069999999999999,2.8550000000000004c-1.3039999999999994,0.8819999999999997,-2.1630000000000003,2.365,-2.197,4.045999999999999c-1.2409999999999997,-1.2639999999999993,-2.01,-2.9939999999999998,-2.01,-4.901ZM8,8c0,-1.1029999999999998,0.8970000000000002,-2,2,-2s2,0.8970000000000002,2,2s-0.8970000000000002,2,-2,2s-2,-0.8970000000000002,-2,-2ZM7,16.315v-1.3150000000000013c0,-1.654,1.346,-3,3,-3s3,1.346,3,3v1.3150000000000013c-0.9109999999999996,0.4349999999999987,-1.9250000000000007,0.6849999999999987,-3,0.6849999999999987s-2.0890000000000004,-0.25,-3,-0.6849999999999987ZM7,60.315v-1.3149999999999977c0,-1.6539999999999964,1.346,-3,3,-3s3,1.3460000000000036,3,3v1.3149999999999977c-0.9109999999999996,0.4350000000000023,-1.9250000000000007,0.6850000000000023,-3,0.6850000000000023s-2.0890000000000004,-0.25,-3,-0.6850000000000023ZM8,52c0,-1.1030000000000015,0.8970000000000002,-2,2,-2s2,0.8969999999999985,2,2s-0.8970000000000002,2,-2,2s-2,-0.8969999999999985,-2,-2ZM17,54c0,1.9069999999999965,-0.7689999999999984,3.6370000000000005,-2.01,4.900999999999996c-0.034000000000000696,-1.6809999999999974,-0.8930000000000007,-3.1640000000000015,-2.197000000000001,-4.045999999999999c0.7430000000000003,-0.7269999999999968,1.2070000000000007,-1.735999999999997,1.2070000000000007,-2.854999999999997c0,-2.206000000000003,-1.7940000000000005,-4,-4,-4s-4,1.793999999999997,-4,4c0,1.1189999999999998,0.4640000000000004,2.128,1.2069999999999999,2.854999999999997c-1.3039999999999994,0.8819999999999979,-2.1630000000000003,2.365000000000002,-2.197,4.045999999999999c-1.2409999999999997,-1.2639999999999958,-2.01,-2.9939999999999998,-2.01,-4.900999999999996c0,-3.8599999999999994,3.1400000000000006,-7,7,-7s7,3.1400000000000006,7,7ZM48,20v6h-32v-6h32ZM16,44v-16h32v16h-32ZM51,60.315v-1.3149999999999977c0,-1.6539999999999964,1.3460000000000036,-3,3,-3s3,1.3460000000000036,3,3v1.3149999999999977c-0.9110000000000014,0.4350000000000023,-1.9249999999999972,0.6850000000000023,-3,0.6850000000000023s-2.0889999999999986,-0.25,-3,-0.6850000000000023ZM52,52c0,-1.1030000000000015,0.8969999999999985,-2,2,-2s2,0.8969999999999985,2,2s-0.8969999999999985,2,-2,2s-2,-0.8969999999999985,-2,-2ZM58.99,58.901c-0.03399999999999892,-1.6809999999999974,-0.8930000000000007,-3.1640000000000015,-2.1970000000000027,-4.045999999999999c0.7430000000000021,-0.7270000000000039,1.2070000000000007,-1.7360000000000042,1.2070000000000007,-2.855000000000004c0,-2.206000000000003,-1.793999999999997,-4,-4,-4s-4,1.793999999999997,-4,4c0,1.1189999999999998,0.46399999999999864,2.128,1.2070000000000007,2.854999999999997c-1.304000000000002,0.8819999999999979,-2.163000000000004,2.365000000000002,-2.1970000000000027,4.045999999999999c-1.2409999999999997,-1.2639999999999958,-2.009999999999998,-2.9939999999999998,-2.009999999999998,-4.900999999999996c0,-3.8599999999999994,3.1400000000000006,-7,7,-7s7,3.1400000000000006,7,7c0,1.9069999999999965,-0.7689999999999984,3.6370000000000005,-2.009999999999998,4.901000000000003Z" fill="#F5AB37"/><rect x="18" y="22" width="2" height="2" fill="#F5AB37"/><rect x="22" y="22" width="2" height="2" fill="#F5AB37"/><rect x="26" y="22" width="2" height="2" fill="#F5AB37"/><path d="M18,42h16v-12h-16v12ZM20,32h12v8h-12v-8Z" fill="#F5AB37"/><rect x="36" y="30" width="10" height="2" fill="#F5AB37"/><rect x="36" y="34" width="10" height="2" fill="#F5AB37"/><rect x="36" y="38" width="10" height="2" fill="#F5AB37"/></g><text x="0" y="79" fill="#000000" font-size="5px" font-weight="bold" font-family="'Helvetica Neue', Helvetica, Arial-Unicode, Arial, Sans-serif"/><text x="0" y="84" fill="#000000" font-size="5px" font-weight="bold" font-family="'Helvetica Neue', Helvetica, Arial-Unicode, Arial, Sans-serif">from the Noun Project</text></svg>