<svg width="600" height="600" xmlns="http://www.w3.org/2000/svg">
 <style type="text/css">.st0{fill:#FFFFFF;}
	.st1{fill:#457ABE;}
	.st2{fill:none;stroke:#000000;stroke-linecap:round;stroke-linejoin:round;stroke-miterlimit:10;}
	.st3{fill:none;stroke:#010101;stroke-linecap:round;stroke-linejoin:round;}
	.st4{fill:none;stroke:#457ABE;stroke-linecap:round;stroke-linejoin:round;stroke-miterlimit:10;}
	.st5{fill:#6598D0;}
	.st6{fill:#D0E5F6;}
	.st7{fill:#A8CCEC;}
	.st8{fill:none;stroke:#000000;stroke-miterlimit:10;}
	.st9{fill:none;stroke:#000000;stroke-linecap:round;stroke-linejoin:round;stroke-dasharray:0.5074,2.0294;}
	.st10{fill:none;stroke:#000000;stroke-linecap:round;stroke-linejoin:round;}
	.st11{fill:none;stroke:#000000;stroke-linecap:round;stroke-linejoin:round;stroke-dasharray:1.0247,2.0495;}
	.st12{fill:none;stroke:#000000;stroke-linecap:round;stroke-linejoin:round;stroke-dasharray:1.0232,2.0464;}
	.st13{fill:#FFFFFF;stroke:#000000;stroke-linecap:round;stroke-linejoin:round;stroke-miterlimit:10;}
	.st14{stroke:#000000;stroke-linecap:round;stroke-linejoin:round;stroke-miterlimit:10;}
	.st15{fill:none;stroke:#010101;stroke-linecap:round;stroke-linejoin:round;stroke-miterlimit:10;}
	.st16{fill:none;stroke:#000000;stroke-linecap:round;stroke-linejoin:round;stroke-miterlimit:10;stroke-dasharray:1,2;}
	.st17{fill:none;stroke:#000000;stroke-linecap:round;stroke-linejoin:round;stroke-dasharray:1,2;}
	
		.st18{fill-rule:evenodd;clip-rule:evenodd;fill:none;stroke:#000000;stroke-linecap:round;stroke-linejoin:round;stroke-miterlimit:10;}</style>

 <g>
  <title>background</title>
  <rect fill="none" id="canvas_background" height="602" width="602" y="-1" x="-1"/>
 </g>
 <g>
  <title>Layer 1</title>
  <path id="svg_1" fill="#000000" d="m102.654546,112.5c-2.017309,0 -3.654546,1.615385 -3.654546,3.605769l0,266.826924c0,1.990385 1.637236,3.605769 3.654546,3.605769l197.345458,0c2.017309,0 3.654546,-1.615385 3.654546,-3.605769l0,-221.909741c0,-0.353365 -0.104842,-0.668308 -0.19986,-1.000038c0.211964,-1.153846 -0.015641,-2.346346 -0.870805,-3.197308l-43.854546,-43.269231c-0.204655,-0.201923 -0.493824,-0.250147 -0.742333,-0.394377c-0.255818,-0.173077 -0.514034,-0.328464 -0.813706,-0.436637c-0.226582,-0.064904 -0.422787,-0.10513 -0.656678,-0.126764c-0.175418,-0.021635 -0.345464,-0.098596 -0.528191,-0.098596l-153.333883,0zm219.272731,0c-2.017309,0 -3.654546,1.615385 -3.654546,3.605769l0,86.538462c0,1.990385 1.637236,3.605769 3.654546,3.605769l175.418185,0c2.017309,0 3.654546,-1.615385 3.654546,-3.605769l0,-86.538462c0,-1.990385 -1.637236,-3.605769 -3.654546,-3.605769l-175.418185,0zm-215.618185,7.211538l146.181821,0l0,14.423077l-76.745456,0c-2.017309,0 -3.654546,1.615385 -3.654546,3.605769l0,14.423077c0,1.990385 1.637236,3.605769 3.654546,3.605769l76.745456,0l0,3.605769c0,1.990385 1.637236,3.605769 3.654546,3.605769l40.200001,0l0,216.346155l-190.036367,0l0,-259.615386zm219.272731,0l168.109094,0l0,79.326923l-168.109094,0l0,-79.326923zm-65.781819,5.098781l31.377701,30.958911l-31.377701,0l0,-3.605769l0,-14.423077l0,-12.930065zm186.224793,2.112757c-2.017309,0 -3.654546,1.615385 -3.654546,3.605769l0,20.690921l0,15.366772c0,1.990385 1.637236,3.605769 3.654546,3.605769l0.95646,0l35.588995,0c2.017309,0 3.654546,-1.615385 3.654546,-3.605769l0,-15.873837l0,-20.183856c0,-1.990385 -1.637236,-3.605769 -3.654546,-3.605769l-36.545455,0zm-321.442977,7.211538c-2.017309,0 -3.654546,1.615385 -3.654546,3.605769l0,20.690921l0,15.366772c0,1.990385 1.637236,3.605769 3.654546,3.605769l0.95646,0l35.588995,0c2.017309,0 3.654546,-1.615385 3.654546,-3.605769l0,-15.873837l0,-20.183856c0,-1.990385 -1.637236,-3.605769 -3.654546,-3.605769l-36.545455,0zm325.111797,0l29.222089,0l0,7.873536l-3.940061,-3.887474c-1.425273,-1.40625 -3.742481,-1.40625 -5.167754,0l-5.239135,5.169209l-5.253409,-5.169209c-1.374109,-1.355769 -3.800954,-1.355769 -5.167754,0l-4.453977,4.394531l0,-8.380594zm-321.457251,7.211538l29.236364,0l0,7.873536l-3.940053,-3.887474c-1.42528,-1.40625 -3.742488,-1.40625 -5.167761,0l-5.253409,5.169209l-5.239135,-5.169209c-1.425273,-1.40625 -3.742481,-1.40625 -5.167754,0l-4.468252,4.394531l0,-8.380594zm51.163637,0l73.09091,0l0,7.211538l-73.09091,0l0,-7.211538zm277.331465,4.4227l2.655261,2.619815l-9.707387,9.577832l0,-5.253721l7.052125,-6.943926zm15.67458,0l6.523934,6.436861l0,10.775055l-0.014275,0l-23.96868,0l17.459021,-17.211916zm-337.117549,7.211538l2.655254,2.619815l-9.707387,9.591916l0,-5.267805l7.052133,-6.943926zm15.660298,0l6.538209,6.436861l0,10.775055l-0.014275,0l-23.96868,0l17.444746,-17.211916zm24.796661,10.000377c-2.017309,0 -3.654546,1.615385 -3.654546,3.605769c0,1.990385 1.637236,3.605769 3.654546,3.605769l58.472728,0c2.017309,0 3.654546,-1.615385 3.654546,-3.605769c0,-1.990385 -1.637236,-3.605769 -3.654546,-3.605769l-58.472728,0zm160.800003,21.634615c-2.017309,0 -3.654546,1.615385 -3.654546,3.605769c0,1.990385 1.637236,3.605769 3.654546,3.605769l146.181821,0c2.017309,0 3.654546,-1.615385 3.654546,-3.605769c0,-1.990385 -1.637236,-3.605769 -3.654546,-3.605769l-146.181821,0zm-14.618182,36.057692c-2.017309,0 -3.654546,1.615385 -3.654546,3.605769l0,158.653847c0,1.990385 1.637236,3.605769 3.654546,3.605769l109.636365,0c10.079237,0 18.272728,-8.091346 18.272728,-18.028846l0,-129.807693c0,-9.9375 -8.193491,-18.028846 -18.272728,-18.028846l-109.636365,0zm160.642974,0.211276c-1.420705,0 -2.831476,0.686221 -3.383312,2.056413l-8.736652,21.550103l-0.028549,0.04226l-5.824432,14.380817c-0.007309,0.014423 -0.006966,0.013752 -0.014275,0.028175l-0.028549,0.042252c-0.021927,0.043269 0.007653,0.090368 -0.014275,0.140849c-0.138873,0.375 -0.242684,0.77175 -0.242684,1.197231l0,108.173077l0,21.634615c0,9.9375 8.193491,18.028846 18.272728,18.028846c10.079237,0 18.272728,-8.091346 18.272728,-18.028846l0,-21.634615l0,-108.173077c0,-0.425481 -0.111127,-0.815019 -0.242691,-1.197231c-0.014618,-0.043269 -0.006622,-0.090368 -0.028549,-0.140849l0,-0.028168c-0.007309,-0.014423 -0.006966,-0.027837 -0.014275,-0.04226l-14.589633,-35.97318c-0.548182,-1.370192 -1.976875,-2.056413 -3.39758,-2.056413zm-156.988429,7.000262l95.018183,0l0,151.442308l-95.018183,0l0,-151.442308zm102.327274,0l3.654546,0c6.044618,0 10.963637,4.853365 10.963637,10.817308l0,129.807693c0,5.963942 -4.919018,10.817308 -10.963637,10.817308l-3.654546,0l0,-151.442308zm54.661154,6.09882l3.383305,8.324257l-6.752343,0l3.369038,-8.324257zm-116.788428,1.112719c-2.017309,0 -3.654546,1.615385 -3.654546,3.605769l0,20.690921l0,15.366772c0,1.990385 1.637236,3.605769 3.654546,3.605769l0.95646,0l35.588995,0c2.017309,0 3.654546,-1.615385 3.654546,-3.605769l0,-15.873837l0,-20.183856c0,-1.990385 -1.637236,-3.605769 -3.654546,-3.605769l-36.545455,0zm3.654546,7.211538l29.236364,0l0,7.873536l-3.940053,-3.887474c-1.42528,-1.40625 -3.742488,-1.40625 -5.167761,0l-5.253409,5.169209l-5.239135,-5.169209c-1.425273,-1.40625 -3.742481,-1.40625 -5.167754,0l-4.468252,4.394531l0,-8.380594zm106.838358,7.211538l12.605324,0l2.912212,7.211538l-9.222012,0l-9.222019,0l2.926494,-7.211538zm-99.786225,4.4227l2.655254,2.619815l-9.707387,9.591916l0,-5.267805l7.052133,-6.943926zm15.660298,0l6.538209,6.436861l0,10.775055l-0.014275,0l-23.96868,0l17.444746,-17.211916zm79.457816,10.000377l7.309091,0l0,100.961539l-7.309091,0l0,-100.961539zm14.618182,0l7.309091,0l0,100.961539l-7.309091,0l0,-100.961539zm-120.600002,21.634615c-2.017309,0 -3.654546,1.615385 -3.654546,3.605769c0,1.990385 1.637236,3.605769 3.654546,3.605769l36.545455,0c2.017309,0 3.654546,-1.615385 3.654546,-3.605769c0,-1.990385 -1.629927,-3.605769 -3.654546,-3.605769l-36.545455,0zm-241.042976,57.692308c-2.017309,0 -3.654546,1.615385 -3.654546,3.605769c0,1.990385 1.637236,3.605769 3.654546,3.605769l153.490912,0c2.017309,0 3.654546,-1.615385 3.654546,-3.605769c0,-1.990385 -1.637236,-3.605769 -3.654546,-3.605769l-153.490912,0zm0,14.423077c-2.017309,0 -3.654546,1.615385 -3.654546,3.605769c0,1.990385 1.637236,3.605769 3.654546,3.605769l7.309091,0c2.017309,0 3.654546,-1.615385 3.654546,-3.605769c0,-1.990385 -1.637236,-3.605769 -3.654546,-3.605769l-7.309091,0zm146.181821,0c-2.017309,0 -3.654546,1.615385 -3.654546,3.605769c0,1.990385 1.637236,3.605769 3.654546,3.605769l7.309091,0c2.017309,0 3.654546,-1.615385 3.654546,-3.605769c0,-1.990385 -1.637236,-3.605769 -3.654546,-3.605769l-7.309091,0zm200.842975,14.423077l10.963637,0l10.963637,0l0,7.211538l-21.927273,0l0,-7.211538zm0,14.423077l21.927273,0l0,3.605769c0,5.963942 -4.911709,10.817308 -10.963637,10.817308c-6.044618,0 -10.963637,-4.853365 -10.963637,-10.817308l0,-3.605769zm-361.642978,14.423077c-6.044618,0 -10.963637,4.853365 -10.963637,10.817308l0,64.903846c0,5.963942 4.919018,10.817308 10.963637,10.817308l109.636365,0c6.044618,0 10.963637,-4.853365 10.963637,-10.817308l0,-64.903846c0,-5.963942 -4.919018,-10.817308 -10.963637,-10.817308l-109.636365,0zm146.181821,0c-6.044618,0 -10.963637,4.853365 -10.963637,10.817308l0,64.903846c0,5.963942 4.919018,10.817308 10.963637,10.817308l109.636365,0c6.044618,0 10.963637,-4.853365 10.963637,-10.817308l0,-64.903846c0,-5.963942 -4.919018,-10.817308 -10.963637,-10.817308l-109.636365,0zm-146.181821,7.211538l109.636365,0c2.01,0 3.654546,1.615385 3.654546,3.605769l0,64.903846c0,1.990385 -1.644545,3.605769 -3.654546,3.605769l-109.636365,0c-2.01,0 -3.654546,-1.615385 -3.654546,-3.605769l0,-64.903846c0,-1.990385 1.644545,-3.605769 3.654546,-3.605769zm146.181821,0l109.636365,0c2.01,0 3.654546,1.615385 3.654546,3.605769l0,64.903846c0,1.990385 -1.644545,3.605769 -3.654546,3.605769l-109.636365,0c-2.01,0 -3.654546,-1.615385 -3.654546,-3.605769l0,-64.903846c0,-1.990385 1.644545,-3.605769 3.654546,-3.605769zm-109.636365,14.423077c-2.017309,0 -3.654546,1.615385 -3.654546,3.605769l0,20.690921l0,15.366772c0,1.990385 1.637236,3.605769 3.654546,3.605769l0.95646,0l35.588995,0c2.017309,0 3.654546,-1.615385 3.654546,-3.605769l0,-15.873837l0,-20.183856c0,-1.990385 -1.637236,-3.605769 -3.654546,-3.605769l-36.545455,0zm3.654546,7.211538l29.236364,0l0,7.873536l-3.940053,-3.887474c-1.42528,-1.40625 -3.742488,-1.40625 -5.167761,0l-5.253409,5.169209l-5.239135,-5.169209c-1.425273,-1.40625 -3.742481,-1.40625 -5.167754,0l-4.468252,4.394531l0,-8.380594zm120.600002,0c-2.017309,0 -3.654546,1.615385 -3.654546,3.605769c0,1.990385 1.637236,3.605769 3.654546,3.605769l80.400001,0c2.017309,0 3.654546,-1.615385 3.654546,-3.605769c0,-1.990385 -1.637236,-3.605769 -3.654546,-3.605769l-80.400001,0zm-113.547869,11.634238l2.655254,2.619815l-9.707387,9.591916l0,-5.267805l7.052133,-6.943926zm15.660298,0l6.538209,6.436861l0,10.775055l-0.014275,0l-23.96868,0l17.444746,-17.211916zm97.887572,2.788839a3.654546,3.605769 0 0 0 -3.654546,3.605769a3.654546,3.605769 0 0 0 3.654546,3.605769a3.654546,3.605769 0 0 0 3.654546,-3.605769a3.654546,3.605769 0 0 0 -3.654546,-3.605769zm14.618182,0c-2.017309,0 -3.654546,1.615385 -3.654546,3.605769c0,1.990385 1.637236,3.605769 3.654546,3.605769l21.927273,0c2.017309,0 3.654546,-1.615385 3.654546,-3.605769c0,-1.990385 -1.637236,-3.605769 -3.654546,-3.605769l-21.927273,0zm-14.618182,14.423077a3.654546,3.605769 0 0 0 -3.654546,3.605769a3.654546,3.605769 0 0 0 3.654546,3.605769a3.654546,3.605769 0 0 0 3.654546,-3.605769a3.654546,3.605769 0 0 0 -3.654546,-3.605769zm14.618182,0c-2.017309,0 -3.654546,1.615385 -3.654546,3.605769c0,1.990385 1.637236,3.605769 3.654546,3.605769l21.927273,0c2.017309,0 3.654546,-1.615385 3.654546,-3.605769c0,-1.990385 -1.637236,-3.605769 -3.654546,-3.605769l-21.927273,0z"/>
 </g>
</svg>