<svg width="512" height="640" xmlns="http://www.w3.org/2000/svg">
 <g>
  <title>background</title>
  <rect x="-1" y="-1" width="514" height="642" id="canvas_background" fill="none"/>
 </g>

 <g>
  <title>Layer 1</title>
  <path stroke="null" stroke-width="0" d="m389.259887,411.959048c0,-27.088741 -21.530374,-49.046785 -48.092118,-49.046785c-3.560513,0 -7.017294,0.396269 -10.352952,1.141718l-31.873133,-32.511137l86.495058,-88.218045c14.98138,-15.278351 14.98138,-40.054914 0,-55.333877c-7.485593,-7.639787 -17.304288,-11.461821 -27.122983,-11.461821s-19.637989,3.822034 -27.133177,11.461821l0,0l-86.503453,88.218045l-98.516139,-100.477295c-4.993594,-5.092783 -11.542588,-7.639175 -18.082588,-7.639175c-6.548995,0 -13.097989,2.546392 -18.091582,7.639175c-9.987187,10.186179 -9.987187,26.702257 0,36.892717l98.524533,100.472403l-93.193357,95.040222l0,55.333877l54.265154,0l93.184362,-95.035942l31.592513,32.220051c-0.843059,3.631238 -1.29277,7.414746 -1.29277,11.303436c0,55.549134 80.320822,59.949059 106.882566,59.949059c26.561144,0.000612 -10.689936,-32.859707 -10.689936,-59.948448l0,0.000001zm-30.946128,-222.386721c6.830214,0 13.247893,2.71395 18.081989,7.639175c9.969198,10.171502 9.969198,26.721214 0,36.892717l-9.040994,9.22058l-36.174171,-36.892105l9.040994,-9.221192c4.834696,-4.925226 11.252974,-7.639175 18.092182,-7.639175l-0.000001,0zm-239.285345,13.82659c-4.983999,-5.083611 -4.983999,-13.358161 0,-18.446664c2.417048,-2.460167 5.630984,-3.817142 9.050588,-3.817142c3.41061,0 6.623947,1.356975 9.041594,3.817142l98.515539,100.477295l-18.081989,18.446664l-98.525733,-100.477295zm9.087764,247.02936l0,-10.802596l10.587402,10.802596l-10.587402,0zm36.164577,0l-7.485593,0l-28.678984,-29.248649l0,-7.639175l194.023409,-197.882286l13.604064,13.874289l-175.16372,178.642474l0,0l0,0c-2.501594,2.546392 -2.501594,6.679081 0,9.225472c2.492,2.546392 6.548995,2.546392 9.040994,0l175.16372,-178.647366l13.528513,13.792956l-194.032404,197.882286zm107.528352,-91.213908l18.081989,-18.446053l27.816738,28.364383c-7.570139,4.323485 -13.87569,10.66378 -18.213305,18.317632l-27.685422,-28.235963l0,0.000001zm68.824405,91.190059c-11.121058,-3.822034 -19.693754,-8.800462 -25.483636,-14.796469c-6.249187,-6.468716 -9.284438,-14.203901 -9.284438,-23.648911c0,-9.61746 3.663048,-18.656417 10.333764,-25.459638c6.670716,-6.798328 15.533625,-10.543922 24.968567,-10.543922c19.469498,0 35.30293,16.152833 35.30293,36.003558c0,14.848448 7.757818,29.329982 13.998011,40.96303c0.927604,1.739178 2.051882,3.831818 3.08262,5.85719c-13.773156,-0.367527 -34.628963,-2.087748 -52.917819,-8.374841l0.000001,0.000001z" id="svg_1"/>
 </g>
</svg>