<svg width="512" height="640" xmlns="http://www.w3.org/2000/svg">
 <g>
  <title>background</title>
  <rect fill="none" id="canvas_background" height="642" width="514" y="-1" x="-1"/>
 </g>

 <g>
  <title>Layer 1</title>
  <path stroke="null" id="svg_1" d="m360.177795,393.192824c0,-21.560699 -16.831677,-39.037735 -37.596691,-39.037735c-2.783479,0 -5.485865,0.315403 -8.093564,0.908727l-24.917275,-25.876541l67.618729,-70.215248c11.711904,-12.160473 11.711904,-31.88085 0,-44.041809c-5.851965,-6.080726 -13.527872,-9.122789 -21.203771,-9.122789s-15.352275,3.042062 -21.211745,9.122789l0,0l-67.625288,70.215256l-77.016377,-79.972741c-3.903809,-4.053488 -9.023582,-6.080233 -14.136319,-6.080233c-5.119765,0 -10.239538,2.026744 -14.143347,6.080233c-7.807626,8.10747 -7.807626,21.253088 0,29.363965l77.022936,79.968841l-72.855211,75.645215l0,44.041809l42.422544,0l72.848183,-75.641808l24.697896,25.644854c-0.659074,2.890207 -1.010649,5.90161 -1.010649,8.996729c0,44.213133 62.791938,47.715162 83.556951,47.715162c20.764544,0.000486 -8.357011,-26.153978 -8.357011,-47.714677l0,0l0.000008,0zm-24.192572,-177.003917c5.339613,0 10.356724,2.16011 14.13585,6.080233c7.793562,8.095786 7.793562,21.268179 0,29.363965l-7.067929,7.338922l-28.279666,-29.36348l7.067929,-7.339407c3.779587,-3.920123 8.797167,-6.080233 14.143816,-6.080233l0,0zm-187.064685,11.004976c-3.896304,-4.04619 -3.896304,-10.63214 0,-14.682229c1.889563,-1.958111 4.402106,-3.03817 7.075426,-3.03817c2.666292,0 5.178366,1.080059 7.068398,3.03817l77.015908,79.972741l-14.13585,14.682221l-77.023882,-79.972733zm7.104492,196.617695l0,-8.598097l8.276849,8.598097l-8.276849,0zm28.272161,0l-5.851965,0l-22.420196,-23.279833l0,-6.080241l151.680527,-157.500136l10.635165,11.042942l-136.9367,142.186624l0,0l0,0c-1.955653,2.026744 -1.955653,5.31607 0,7.342814c1.948156,2.026744 5.119773,2.026744 7.067921,0l136.936708,-142.190516l10.576103,10.978201l-151.687563,157.500144zm84.061807,-72.599746l14.13585,-14.681736l21.74612,22.576017c-5.918056,3.441181 -10.847516,8.487606 -14.238503,14.579523l-21.643466,-22.473804l0,0zm53.804442,72.580763c-8.694045,-3.04207 -15.395866,-7.004536 -19.922186,-11.776931c-4.885392,-5.148638 -7.258241,-11.305288 -7.258241,-18.82284c0,-7.65481 2.863641,-14.849175 8.078562,-20.264052c5.214929,-5.410984 12.143634,-8.392206 19.51953,-8.392206c15.220555,0 27.598562,12.856497 27.598562,28.656258c0,11.818296 6.064785,23.344565 10.943141,32.603641c0.725164,1.384255 1.604086,3.049847 2.409882,4.661904c-10.767361,-0.292528 -27.071676,-1.6617 -41.369249,-6.665773l0,0z" stroke-width="0"/>
 </g>
</svg>