<svg width="512" height="640" xmlns="http://www.w3.org/2000/svg">

 <g>
  <title>background</title>
  <rect fill="none" id="canvas_background" height="402" width="582" y="-1" x="-1"/>
 </g>
 <g>
  <title>Layer 1</title>
  <path stroke="null" id="svg_1" d="m446.121907,443.740573c0,-36.450747 -30.717389,-65.997601 -68.613034,-65.997601c-5.079785,0 -10.011574,0.533221 -14.770558,1.536301l-45.473405,-43.74715l123.402515,-118.706646c21.373937,-20.558626 21.373937,-53.898095 0,-74.457544c-10.679697,-10.280136 -24.688031,-15.423084 -38.696365,-15.423084s-28.017523,5.142948 -38.710908,15.423084l0,0l-123.414492,118.706646l-140.552993,-135.202755c-7.124361,-6.852875 -16.467812,-10.279313 -25.798432,-10.279313c-9.343452,0 -18.686904,3.426438 -25.811264,10.279313c-14.248721,13.706574 -14.248721,35.930692 0,49.643026l140.56497,135.196172l-132.958979,127.886603l0,74.457544l77.420105,0l132.946147,-127.880843l45.073044,43.355463c-1.202792,4.886212 -1.844395,9.977319 -1.844395,15.20996c0,74.747195 114.593732,80.667757 152.489377,80.667757c37.894789,0.000823 -15.251333,-44.216187 -15.251333,-80.666934zm-44.150847,-299.244694c9.744668,0 18.900771,3.651905 25.797577,10.279313c14.223057,13.686825 14.223057,35.956201 0,49.643026l-12.898788,12.407259l-51.609696,-49.642203l12.898788,-12.408082c6.897661,-6.627409 16.05462,-10.279313 25.81212,-10.279313zm-341.388445,18.605129c-7.110673,-6.840532 -7.110673,-17.974809 0,-24.821924c3.448403,-3.310413 8.033726,-5.136365 12.912476,-5.136365c4.865918,0 9.450386,1.825952 12.899644,5.136365l140.552138,135.202755l-25.797577,24.821924l-140.566681,-135.202755zm12.965515,332.403954l0,-14.536028l15.105048,14.536028l-15.105048,0zm51.596009,0l-10.679697,0l-40.916312,-39.35713l0,-10.279313l276.813234,-266.271403l19.408921,18.669313l-249.906112,240.382214l0,0l0,0c-3.569024,3.426438 -3.569024,8.987405 0,12.413842c3.555337,3.426438 9.343452,3.426438 12.898788,0l249.906112,-240.388797l19.301132,18.559871l-276.826066,266.271403zm153.410719,-122.737895l25.797577,-24.821102l39.686145,38.167257c-10.800319,5.817703 -19.796449,14.349236 -25.984925,24.648298l-39.498797,-37.994454zm98.191791,122.705803c-15.866416,-5.142948 -28.097082,-11.841946 -36.357508,-19.910203c-8.915716,-8.704337 -13.24611,-19.112841 -13.24611,-31.822094c0,-12.941303 5.226071,-25.104169 14.743183,-34.258617c9.517112,-9.147865 22.161826,-14.187954 35.622659,-14.187954c27.777136,0 50.366697,21.735333 50.366697,48.44657c0,19.980147 11.068081,39.466572 19.970965,55.12006c1.323413,2.340247 2.927421,5.156114 4.397975,7.881465c-19.650164,-0.494546 -49.405148,-2.809284 -75.497862,-11.269228z"/>
 </g>
</svg>