<svg xmlns:dc="http://purl.org/dc/elements/1.1/" xmlns:cc="http://creativecommons.org/ns#" xmlns:rdf="http://www.w3.org/1999/02/22-rdf-syntax-ns#"  xmlns="http://www.w3.org/2000/svg" xmlns:sodipodi="http://sodipodi.sourceforge.net/DTD/sodipodi-0.dtd" xmlns:inkscape="http://www.inkscape.org/namespaces/inkscape" version="1.1" x="0px" y="0px" viewBox="0 0 200 200" width="100%" height="100%" xmlns:xlink="http://www.w3.org/1999/xlink" preserveAspectRatio="xMidYMid meet"><rect id="svgEditorBackground" x="0" y="0" width="100" height="125" style="fill: none; stroke: none;"/><g transform="translate(0,-952.36218)"><path style="font-size: medium; font-style: normal; font-variant-ligatures: normal; font-variant-caps: normal; font-weight: normal; font-stretch: normal; text-indent: 0px; text-align: start; text-decoration: none; line-height: normal; letter-spacing: normal; word-spacing: normal; text-transform: none; direction: ltr; writing-mode: lr-tb; text-anchor: start; baseline-shift: baseline; opacity: 1; color: rgb(0, 0, 0); fill-opacity: 1; stroke: none; stroke-width: 6; marker: none; visibility: visible; display: inline; overflow: visible; font-family: Sans;" d="M 87 10 C 77.772546 10.00001 65.831194 13.23224 54.9375 19.8125 C 50.768018 22.331047 46.754037 25.364225 43.15625 28.90625 C 41.415083 28.729011 39.746354 28.582711 38.1875 28.53125 C 32.441468 28.34157 27.864952 29.04178 23.875 30.875 C 18.555064 33.3193 14.670597 37.57008 10.5625 43.21875 A 3.0003 3.0003 0 0 0 12.125 47.875 L 31.46875 53.6875 L 46.34375 68.5625 L 52.125 87.84375 A 3.0003 3.0003 0 0 0 56.75 89.40625 C 62.398625 85.29825 66.649456 81.4449 69.09375 76.125 C 71.415236 71.072386 71.930019 65.014286 71.09375 56.90625 C 80.600959 47.289449 86.405162 34.590467 88.78125 23.625 A 3.006544 3.006544 0 1 0 82.90625 22.34375 C 79.562862 37.77324 68.375983 57.03115 49.71875 63.46875 L 36.46875 50.21875 C 40.297307 39.11045 48.545457 30.66733 58.03125 24.9375 C 67.983266 18.92605 79.227464 16 87 16 A 3.0003 3.0003 0 1 0 87 10 z M 66 27 C 62.134007 27 59 30.134007 59 34 C 59 37.865993 62.134007 41 66 41 C 69.865993 41 73 37.865993 73 34 C 73 30.134007 69.865993 27 66 27 z M 35.59375 34.5 C 36.40051 34.483302 37.26348 34.498952 38.15625 34.53125 C 35.242491 38.318027 32.833877 42.571397 31.09375 47.28125 L 18.21875 43.4375 C 20.906396 40.21168 23.445028 37.68996 26.375 36.34375 C 28.83129 35.215181 31.738653 34.579789 35.59375 34.5 z M 26.65625 57.96875 A 3.0003 3.0003 0 0 0 24.875 58.875 L 18.875 64.875 A 3.0003 3.0003 0 1 0 23.125 69.09375 L 29.125 63.09375 A 3.0003 3.0003 0 0 0 26.65625 57.96875 z M 65.46875 61.875 C 65.651993 67.018716 65.018468 70.660146 63.65625 73.625 C 62.30897 76.5573 59.792591 79.09125 56.5625 81.78125 L 52.71875 68.9375 C 57.437964 67.200072 61.676537 64.775171 65.46875 61.875 z M 33.65625 62.96875 A 3.0003 3.0003 0 0 0 31.875 63.875 L 19.875 75.875 A 3.0003 3.0003 0 1 0 24.125 80.09375 L 36.125 68.09375 A 3.0003 3.0003 0 0 0 33.65625 62.96875 z M 38.65625 69.96875 A 3.0003 3.0003 0 0 0 36.875 70.875 L 30.875 76.875 A 3.0003 3.0003 0 1 0 35.125 81.09375 L 41.125 75.09375 A 3.0003 3.0003 0 0 0 38.65625 69.96875 z " transform="translate(0,952.36218)" fill="#F5AB37"/></g><text x="0" y="115" fill="#000000" font-size="5px" font-weight="bold" font-family="'Helvetica Neue', Helvetica, Arial-Unicode, Arial, Sans-serif"></text><text x="0" y="120" fill="#000000" font-size="5px" font-weight="bold" font-family="'Helvetica Neue', Helvetica, Arial-Unicode, Arial, Sans-serif"></text></svg>