<svg width="210" height="210" xmlns="http://www.w3.org/2000/svg">

 <g>
  <title>background</title>
  <rect fill="none" id="canvas_background" height="212" width="212" y="-1" x="-1"/>
 </g>
 <g>
  <title>Layer 1</title>
  <g stroke="null" id="svg_1">
   <path stroke="null" id="svg_2" d="m187.610426,27.499001l-165.220839,0c-1.13,0 -2.047577,0.841418 -2.047577,1.882118l0,151.237761c0,1.038688 0.917577,1.882118 2.047577,1.882118l165.220839,0c1.13219,0 2.047577,-0.843431 2.047577,-1.882118l0,-151.237761c-0.00219,-1.040701 -0.915387,-1.882118 -2.047577,-1.882118zm-163.173262,20.137659l161.127875,0l0,99.518762l-161.127875,0l0,-99.518762zm161.125685,-16.373422l0,12.609186l-161.127875,0l0,-12.609186l161.127875,0zm-161.125685,147.473524l0,-27.815091l161.127875,0l0,27.815091l-161.127875,0z"/>
   <path stroke="null" id="svg_3" d="m111.550062,101.235764l0,-42.533859c0,-1.038688 -0.915387,-1.882118 -2.047577,-1.882118l-73.708388,0c-1.13,0 -2.047577,0.841418 -2.047577,1.882118l0,42.533859c0,1.040701 0.917577,1.882118 2.047577,1.882118l73.708388,0c1.13219,0 2.047577,-0.843431 2.047577,-1.882118zm-4.095154,-1.882118l-69.613234,0l0,-38.769622l69.613234,0l0,38.769622z"/>
   <path stroke="null" id="svg_4" d="m120.149885,69.428972l14.468813,0c1.13,0 2.047577,-0.841418 2.047577,-1.882118c0,-1.040701 -0.917577,-1.882118 -2.047577,-1.882118l-14.468813,0c-1.13219,0 -2.047577,0.841418 -2.047577,1.882118c0.00219,1.038688 0.917577,1.882118 2.047577,1.882118z"/>
   <path stroke="null" id="svg_5" d="m120.149885,77.710292l57.056222,0c1.13219,0 2.047577,-0.841418 2.047577,-1.882118c0,-1.040701 -0.915387,-1.882118 -2.047577,-1.882118l-57.056222,0c-1.13219,0 -2.047577,0.841418 -2.047577,1.882118c0.00219,1.038688 0.917577,1.882118 2.047577,1.882118z"/>
   <path stroke="null" id="svg_6" d="m177.206107,82.227376l-57.056222,0c-1.13219,0 -2.047577,0.841418 -2.047577,1.882118c0,1.038688 0.915387,1.882118 2.047577,1.882118l57.056222,0c1.13219,0 2.047577,-0.841418 2.047577,-1.882118c-0.00219,-1.040701 -0.915387,-1.882118 -2.047577,-1.882118z"/>
   <path stroke="null" id="svg_7" d="m177.206107,90.508696l-57.056222,0c-1.13219,0 -2.047577,0.841418 -2.047577,1.882118c0,1.038688 0.915387,1.882118 2.047577,1.882118l57.056222,0c1.13219,0 2.047577,-0.841418 2.047577,-1.882118c-0.00219,-1.040701 -0.915387,-1.882118 -2.047577,-1.882118z"/>
   <path stroke="null" id="svg_8" d="m73.469512,121.560628l-29.482917,0c-1.13,0 -2.047577,0.841418 -2.047577,1.882118l0,17.691911c0,1.038688 0.917577,1.882118 2.047577,1.882118l29.482917,0c1.13,0 2.047577,-0.843431 2.047577,-1.882118l0,-17.691911c-0.00219,-1.040701 -0.917577,-1.882118 -2.047577,-1.882118zm-2.047577,17.689898l-25.387763,0l0,-13.925662l25.387763,0l0,13.925662z"/>
   <path stroke="null" id="svg_9" d="m119.74256,121.560628l-29.482917,0c-1.13219,0 -2.047577,0.841418 -2.047577,1.882118l0,17.691911c0,1.038688 0.915387,1.882118 2.047577,1.882118l29.482917,0c1.13219,0 2.047577,-0.843431 2.047577,-1.882118l0,-17.691911c-0.00219,-1.040701 -0.917577,-1.882118 -2.047577,-1.882118zm-2.049767,17.689898l-25.387763,0l0,-13.925662l25.387763,0l0,13.925662z"/>
   <path stroke="null" id="svg_10" d="m166.015607,121.560628l-29.485107,0c-1.13219,0 -2.047577,0.841418 -2.047577,1.882118l0,17.691911c0,1.038688 0.915387,1.882118 2.047577,1.882118l29.485107,0c1.13,0 2.047577,-0.843431 2.047577,-1.882118l0,-17.691911c-0.00219,-1.040701 -0.919767,-1.882118 -2.047577,-1.882118zm-2.049767,17.689898l-25.387763,0l0,-13.925662l25.387763,0l0,13.925662z"/>
   <path stroke="null" id="svg_11" d="m51.355682,113.657744c-1.13,0 -2.047577,0.841418 -2.047577,1.882118s0.917577,1.884131 2.047577,1.884131l14.742553,0c1.13,0 2.047577,-0.843431 2.047577,-1.884131s-0.915387,-1.882118 -2.047577,-1.882118l-14.742553,0z"/>
   <path stroke="null" id="svg_12" d="m95.581153,115.537849c0,1.040701 0.917577,1.884131 2.047577,1.884131l14.740364,0c1.13219,0 2.049767,-0.843431 2.049767,-1.884131s-0.917577,-1.882118 -2.049767,-1.882118l-14.740364,0c-1.13,0.002013 -2.047577,0.841418 -2.047577,1.882118z"/>
   <path stroke="null" id="svg_13" d="m158.64214,117.42198c1.13219,0 2.047577,-0.843431 2.047577,-1.884131s-0.915387,-1.882118 -2.047577,-1.882118l-14.740364,0c-1.13219,0 -2.047577,0.841418 -2.047577,1.882118s0.915387,1.884131 2.047577,1.884131l14.740364,0z"/>
   <path stroke="null" id="svg_14" d="m73.469512,155.813166l-29.482917,0c-1.13,0 -2.047577,0.843431 -2.047577,1.884131c0,1.038688 0.917577,1.882118 2.047577,1.882118l29.482917,0c1.13,0 2.047577,-0.843431 2.047577,-1.882118c-0.00219,-1.040701 -0.917577,-1.884131 -2.047577,-1.884131z"/>
   <path stroke="null" id="svg_15" d="m73.469512,162.399574l-29.482917,0c-1.13,0 -2.047577,0.843431 -2.047577,1.882118c0,1.040701 0.917577,1.884131 2.047577,1.884131l29.482917,0c1.13,0 2.047577,-0.843431 2.047577,-1.884131c-0.00219,-1.038688 -0.917577,-1.882118 -2.047577,-1.882118z"/>
   <path stroke="null" id="svg_16" d="m73.469512,168.987994l-29.482917,0c-1.13,0 -2.047577,0.841418 -2.047577,1.882118s0.917577,1.884131 2.047577,1.884131l29.482917,0c1.13,0 2.047577,-0.843431 2.047577,-1.884131s-0.917577,-1.882118 -2.047577,-1.882118z"/>
   <path stroke="null" id="svg_17" d="m119.74256,155.813166l-29.482917,0c-1.13219,0 -2.047577,0.843431 -2.047577,1.884131c0,1.038688 0.915387,1.882118 2.047577,1.882118l29.482917,0c1.13219,0 2.047577,-0.843431 2.047577,-1.882118c-0.00219,-1.040701 -0.917577,-1.884131 -2.047577,-1.884131z"/>
   <path stroke="null" id="svg_18" d="m119.74256,162.399574l-29.482917,0c-1.13219,0 -2.047577,0.843431 -2.047577,1.882118c0,1.040701 0.915387,1.884131 2.047577,1.884131l29.482917,0c1.13219,0 2.047577,-0.843431 2.047577,-1.884131c-0.00219,-1.038688 -0.917577,-1.882118 -2.047577,-1.882118z"/>
   <path stroke="null" id="svg_19" d="m119.74256,168.987994l-29.482917,0c-1.13219,0 -2.047577,0.841418 -2.047577,1.882118s0.915387,1.884131 2.047577,1.884131l29.482917,0c1.13219,0 2.047577,-0.843431 2.047577,-1.884131s-0.917577,-1.882118 -2.047577,-1.882118z"/>
   <path stroke="null" id="svg_20" d="m166.015607,155.813166l-29.485107,0c-1.13219,0 -2.047577,0.843431 -2.047577,1.884131c0,1.038688 0.915387,1.882118 2.047577,1.882118l29.485107,0c1.13,0 2.047577,-0.843431 2.047577,-1.882118c-0.00219,-1.040701 -0.919767,-1.884131 -2.047577,-1.884131z"/>
   <path stroke="null" id="svg_21" d="m166.015607,162.399574l-29.485107,0c-1.13219,0 -2.047577,0.843431 -2.047577,1.882118c0,1.040701 0.915387,1.884131 2.047577,1.884131l29.485107,0c1.13,0 2.047577,-0.843431 2.047577,-1.884131c-0.00219,-1.038688 -0.919767,-1.882118 -2.047577,-1.882118z"/>
   <path stroke="null" id="svg_22" d="m166.015607,168.987994l-29.485107,0c-1.13219,0 -2.047577,0.841418 -2.047577,1.882118s0.915387,1.884131 2.047577,1.884131l29.485107,0c1.13,0 2.047577,-0.843431 2.047577,-1.884131s-0.919767,-1.882118 -2.047577,-1.882118z"/>
   <path stroke="null" id="svg_23" d="m65.244166,89.240531c0.317539,0.167076 0.670116,0.25162 1.024883,0.25162c0.352577,0 0.707345,-0.084544 1.022693,-0.25162l14.398736,-7.641199c0.635077,-0.336164 1.024883,-0.958169 1.024883,-1.630498s-0.389806,-1.294334 -1.024883,-1.630498l-14.398736,-7.641199c-0.632887,-0.336164 -1.414689,-0.336164 -2.047577,0c-0.632887,0.336164 -1.022693,0.958169 -1.022693,1.630498l0,15.282397c0,0.672329 0.389806,1.294334 1.022693,1.630498zm3.07246,-13.653912l8.258195,4.382215l-8.258195,4.382215l0,-8.764431z"/>
   <path stroke="null" id="svg_24" d="m169.357428,42.515688c1.13219,0 2.049767,-0.841418 2.049767,-1.882118l0,-4.14066l5.253622,0l0,4.14066c0,1.040701 0.917577,1.882118 2.047577,1.882118c1.13219,0 2.049767,-0.841418 2.049767,-1.882118l0,-6.022778c0,-1.038688 -0.917577,-1.882118 -2.049767,-1.882118l-9.350966,0c-1.13219,0 -2.047577,0.843431 -2.047577,1.882118l0,6.022778c0,1.040701 0.915387,1.882118 2.047577,1.882118z"/>
   <path stroke="null" id="svg_25" d="m151.853383,42.515688c1.13,0 2.047577,-0.841418 2.047577,-1.882118l0,-4.14066l5.253622,0l0,4.14066c0,1.040701 0.917577,1.882118 2.049767,1.882118s2.047577,-0.841418 2.047577,-1.882118l0,-6.022778c0,-1.038688 -0.915387,-1.882118 -2.047577,-1.882118l-9.350966,0c-1.13219,0 -2.049767,0.843431 -2.049767,1.882118l0,6.022778c0,1.040701 0.917577,1.882118 2.049767,1.882118z"/>
   <path stroke="null" id="svg_26" d="m134.347148,42.515688c1.13219,0 2.047577,-0.841418 2.047577,-1.882118l0,-4.14066l5.255812,0l0,4.14066c0,1.040701 0.915387,1.882118 2.047577,1.882118s2.049767,-0.841418 2.049767,-1.882118l0,-6.022778c0,-1.038688 -0.917577,-1.882118 -2.049767,-1.882118l-9.350966,0c-1.13219,0 -2.047577,0.843431 -2.047577,1.882118l0,6.022778c0,1.040701 0.915387,1.882118 2.047577,1.882118z"/>
  </g>
 </g>
</svg>